<?xml version="1.0" standalone="no"?>
<!DOCTYPE svg PUBLIC "-//W3C//DTD SVG 20010904//EN"
 "http://www.w3.org/TR/2001/REC-SVG-20010904/DTD/svg10.dtd">
<svg version="1.0" xmlns="http://www.w3.org/2000/svg"
 width="1280.000000pt" height="651.000000pt" viewBox="0 0 1280.000000 651.000000"
 preserveAspectRatio="xMidYMid meet">
<metadata>
Created by potrace 1.15, written by Peter Selinger 2001-2017
</metadata>
<g transform="translate(0.000000,651.000000) scale(0.100000,-0.100000)"
fill="#000000" stroke="none">
<path d="M233 6471 c-110 -28 -151 -44 -180 -67 -60 -49 -63 -78 -19 -189 48
-121 79 -151 208 -206 108 -46 145 -70 134 -87 -4 -7 -20 -12 -35 -12 -41 0
-90 -20 -101 -40 -6 -10 -10 -39 -10 -63 0 -85 107 -253 199 -312 20 -12 87
-68 150 -124 63 -56 122 -106 132 -112 10 -5 52 -14 93 -19 41 -5 107 -21 148
-35 40 -15 96 -30 125 -35 83 -14 317 14 380 45 32 16 193 35 312 38 60 1 85
-3 95 -13 15 -16 280 -879 291 -946 3 -22 14 -52 23 -66 9 -13 36 -53 59 -88
83 -123 203 -380 203 -435 0 -13 -40 -15 -322 -15 -394 -1 -578 -11 -614 -35
-30 -19 -45 -54 -33 -76 25 -49 200 -69 608 -69 146 0 303 -3 347 -6 l81 -7
42 -132 c48 -150 61 -235 40 -251 -8 -6 -57 -25 -109 -43 -444 -152 -747 -458
-895 -905 -91 -273 -85 -590 15 -886 89 -262 260 -513 455 -668 92 -72 99 -82
77 -98 -16 -11 -15 -14 3 -34 37 -40 100 -70 159 -75 33 -2 91 -19 144 -40
187 -78 185 -78 401 -71 107 4 227 11 267 16 84 11 297 92 318 121 8 12 20 17
29 13 10 -3 21 2 29 16 7 12 27 28 45 36 49 24 262 249 325 344 67 102 112
191 163 325 76 199 98 205 212 63 152 -193 325 -307 609 -405 l109 -38 220 1
c135 0 245 5 285 13 138 27 346 150 477 283 137 137 293 377 293 449 0 19 6
32 17 36 9 4 105 -1 213 -10 351 -31 1219 -68 1625 -70 284 -2 291 -2 328 20
21 13 40 23 41 23 2 0 6 -53 10 -117 14 -232 50 -366 155 -588 83 -174 157
-282 276 -400 120 -121 242 -213 349 -266 43 -21 84 -43 91 -49 37 -30 263
-82 445 -101 128 -13 370 -7 418 11 18 7 39 25 48 42 12 24 19 28 37 21 68
-24 171 17 332 132 177 126 339 295 413 431 46 85 64 90 148 40 124 -74 272
-106 488 -106 77 0 159 5 181 11 61 17 267 122 364 186 105 69 307 269 373
369 96 145 175 334 210 504 15 77 15 742 -2 842 -11 68 -87 204 -199 356 -81
110 -249 276 -325 322 -32 19 -67 42 -78 51 l-20 15 21 42 c12 23 28 66 36 97
7 30 17 60 20 65 9 14 32 12 60 -6 19 -13 30 -13 66 -4 105 28 158 138 167
343 5 128 -7 217 -39 279 -27 53 -56 70 -131 77 -3 1 -9 15 -13 31 -4 17 -16
35 -28 41 -25 14 -294 6 -348 -10 -57 -17 -101 -53 -114 -91 -21 -61 -38 -44
-51 50 -12 90 -31 137 -95 231 l-38 56 -203 8 c-194 6 -248 11 -402 35 -38 6
-216 14 -395 19 -179 5 -333 12 -342 15 -9 4 -21 21 -26 39 -11 38 -49 56 -90
41 -23 -8 -29 -17 -33 -49 -3 -27 -10 -41 -22 -43 -15 -3 -18 4 -18 50 0 30
-5 59 -10 64 -17 17 11 34 73 44 59 9 88 23 104 49 10 16 4 56 -29 189 -20 81
-108 121 -155 70 -25 -27 -73 -138 -73 -170 0 -13 -7 -32 -15 -42 -19 -25 -19
-36 0 -36 11 0 15 -11 15 -39 0 -22 5 -41 12 -43 8 -3 7 -11 -5 -28 -9 -14
-17 -38 -17 -55 0 -17 -5 -36 -12 -43 -13 -13 -66 -16 -85 -4 -18 11 -33 59
-33 105 0 53 -28 100 -69 117 -28 11 -44 10 -119 -8 -49 -13 -95 -30 -106 -42
-20 -19 -20 -20 0 -41 10 -11 23 -39 29 -62 13 -52 36 -68 65 -42 29 26 22 50
-15 50 -28 0 -30 3 -33 43 -3 41 10 57 22 27 8 -21 18 -19 61 15 72 57 111 28
115 -85 3 -96 -3 -104 -54 -64 -29 23 -33 19 -13 -11 15 -26 -2 -40 -53 -40
-34 0 -69 -14 -60 -23 3 -3 176 -1 385 5 209 5 425 7 480 4 55 -3 159 -7 232
-8 72 -2 135 -6 139 -11 14 -14 -15 -30 -68 -38 -111 -16 -1156 -1 -1225 18
l-28 7 29 6 c33 6 38 23 8 28 -11 2 -81 -11 -156 -27 -144 -33 -201 -38 -211
-20 -9 13 21 46 58 66 15 8 36 22 46 32 10 10 43 24 72 31 30 7 62 20 73 29
15 13 56 91 56 107 0 2 -72 4 -160 4 l-160 0 0 39 c0 21 7 78 16 127 9 49 21
118 28 154 l11 65 100 12 c185 22 245 52 284 143 45 105 46 363 1 483 -38 103
-68 132 -197 195 -136 66 -174 71 -396 53 -174 -15 -214 -27 -333 -107 -130
-86 -172 -128 -222 -223 -23 -43 -48 -84 -56 -90 -8 -7 -40 -16 -71 -21 -31
-5 -64 -15 -72 -21 -21 -18 -12 -59 18 -81 25 -19 26 -19 57 -1 43 24 58 14
107 -78 22 -41 48 -86 58 -101 22 -32 66 -51 99 -43 33 8 46 -11 22 -31 -18
-13 -17 -16 18 -48 20 -19 56 -40 80 -47 81 -23 83 -35 27 -162 -67 -150 -95
-320 -65 -391 14 -33 19 -37 38 -31 37 13 97 8 123 -9 21 -14 25 -24 25 -65 0
-65 7 -81 35 -81 24 0 42 -16 32 -27 -4 -3 -21 -9 -39 -13 -31 -8 -31 -9 11
-7 56 2 82 34 89 108 l5 52 16 -43 c9 -24 21 -45 28 -47 6 -2 17 15 25 38 17
52 38 63 38 20 0 -26 4 -31 25 -31 14 0 25 -4 25 -8 0 -12 -70 -49 -107 -57
-37 -7 -44 -30 -13 -40 25 -8 87 9 111 31 11 10 21 15 24 12 3 -2 1 -38 -5
-79 -5 -41 -10 -106 -10 -146 0 -39 -4 -75 -10 -78 -5 -3 -10 -2 -10 4 0 31
-103 48 -250 43 -87 -4 -94 -15 -38 -65 38 -34 46 -47 42 -68 -7 -30 15 -52
48 -47 17 2 25 13 33 48 11 44 12 45 50 45 38 0 40 -2 43 -32 4 -38 34 -63 76
-63 28 0 29 1 23 43 l-6 42 25 -28 c13 -15 25 -24 25 -20 1 4 2 87 3 183 1
165 2 178 26 225 26 51 65 80 94 69 24 -9 19 -23 -10 -34 -19 -7 -25 -15 -21
-28 28 -83 47 -162 47 -189 0 -18 5 -33 10 -33 6 0 10 6 10 14 0 7 10 25 21
40 l21 27 -21 20 c-11 11 -21 29 -21 41 0 20 1 21 20 3 18 -16 20 -17 20 -1 0
9 12 21 26 26 33 13 1123 13 1413 0 118 -5 219 -14 224 -19 14 -14 -17 -92
-49 -122 l-26 -24 -731 -7 c-403 -4 -752 -10 -777 -14 -45 -8 -45 -8 30 -15
41 -4 307 -10 590 -13 633 -8 893 -15 911 -27 23 -14 -5 -32 -59 -39 -43 -6
-39 -7 45 -14 51 -4 97 -14 102 -20 8 -9 3 -22 -14 -46 -15 -21 -25 -48 -25
-69 -1 -29 -2 -33 -11 -18 -14 25 -29 21 -29 -8 0 -16 -6 -25 -15 -25 -17 0
-22 65 -5 75 15 9 12 25 -4 25 -26 0 -46 -30 -46 -71 0 -32 4 -41 24 -48 38
-15 95 4 138 46 30 28 39 33 35 18 -22 -77 -22 -77 25 -30 44 44 92 65 108 49
6 -6 1 -36 -11 -74 -13 -43 -21 -97 -22 -160 l-2 -95 -32 -3 c-37 -4 -34 -12
-35 113 l0 70 -15 -67 c-23 -98 -43 -92 -43 13 0 80 0 81 -22 75 -13 -4 -56
-13 -96 -20 -40 -8 -76 -17 -79 -20 -4 -3 32 -6 79 -6 l85 0 7 -117 c6 -108
18 -212 31 -271 9 -39 -26 -23 -40 18 -8 25 -22 41 -51 55 l-39 20 33 3 c39 4
53 29 27 48 -10 8 -40 17 -65 20 -60 8 -64 11 -83 55 -20 50 -65 66 -102 38
-14 -11 -25 -31 -25 -43 0 -13 -11 -35 -26 -51 -22 -24 -30 -26 -67 -21 -35 5
-47 2 -71 -17 l-30 -24 33 -75 c40 -91 37 -120 -6 -60 -40 55 -58 172 -50 322
7 129 22 199 51 242 31 47 58 44 75 -10 16 -52 35 -52 69 -2 l23 35 -25 22
c-14 12 -26 30 -26 41 0 27 42 62 73 62 45 0 30 17 -23 27 -53 11 -60 9 -60
-17 0 -10 -29 -48 -64 -86 -105 -115 -115 -143 -126 -363 -7 -153 -9 -166 -30
-183 -21 -17 -21 -18 -2 -18 23 0 40 -18 67 -74 11 -22 36 -51 55 -64 36 -24
36 -24 152 -6 35 6 37 4 46 -27 5 -19 23 -56 41 -83 41 -65 41 -104 0 -151
-61 -69 -66 -70 -339 -70 -228 0 -251 2 -330 24 -143 40 -209 51 -355 57 -159
7 -306 -5 -429 -37 -138 -37 -156 -39 -348 -48 -190 -9 -254 -21 -187 -36 19
-4 88 -10 154 -14 l120 -6 -46 -27 c-64 -39 -126 -48 -330 -48 -196 0 -194 0
-159 58 l20 32 89 0 c84 0 116 9 90 26 -6 3 -49 9 -95 13 -46 4 -89 12 -95 18
-16 16 11 51 128 164 206 198 477 396 611 448 138 53 212 61 648 74 426 13
434 14 434 62 0 31 -26 50 -89 65 -37 9 -55 18 -58 31 -7 24 -8 24 -42 -2 -42
-31 -64 -22 -77 31 -6 26 -13 39 -18 32 -12 -20 -26 -13 -26 13 0 14 -4 25
-10 25 -5 0 -10 -18 -10 -39 0 -22 -7 -46 -15 -55 -21 -20 -79 -36 -134 -36
-85 0 -34 -9 114 -20 83 -6 154 -15 158 -19 22 -22 -73 -33 -353 -42 -162 -5
-347 -13 -410 -19 -374 -33 -693 -168 -956 -402 -110 -98 -423 -435 -681 -733
-124 -143 -213 -236 -213 -221 0 28 578 684 800 907 298 299 480 390 969 479
117 21 216 41 219 44 19 20 -180 -5 -413 -50 -125 -25 -195 -34 -227 -30 -36
4 -48 2 -48 -8 0 -8 -9 -24 -19 -37 -18 -22 -21 -23 -36 -8 -9 9 -22 38 -29
64 -21 83 -41 69 -56 -38 -10 -68 -16 -76 -90 -130 -30 -22 -69 -53 -86 -69
l-32 -30 -3 150 c-3 125 -7 153 -22 169 -9 11 -17 23 -17 26 0 13 35 7 58 -9
24 -17 27 -13 12 16 -5 10 -24 21 -41 25 -40 9 -47 31 -59 174 -13 155 -12
234 2 268 l11 28 8 -40 c4 -22 8 -83 8 -136 1 -53 4 -111 8 -130 14 -71 22 9
22 236 l0 230 -32 -59 c-18 -33 -38 -62 -45 -64 -18 -5 -15 53 3 68 8 7 15 21
15 31 0 18 -2 18 -24 4 -14 -9 -27 -12 -30 -7 -6 11 9 146 20 177 4 11 18 35
31 53 13 17 20 32 16 32 -4 0 -1 5 7 10 10 6 22 4 37 -5 12 -8 24 -15 27 -15
9 0 37 71 31 80 -3 6 -44 10 -91 10 -61 0 -92 4 -109 16 -38 25 -218 31 -326
10 -47 -9 -88 -16 -91 -16 -3 0 -9 27 -13 59 -10 85 -54 172 -126 247 l-62 64
22 72 c25 85 26 126 7 173 -27 63 -115 131 -148 114 -28 -15 -22 -24 27 -37
68 -18 88 -55 81 -152 -7 -93 -27 -170 -47 -183 -49 -31 -137 69 -159 181 -6
31 -16 76 -22 98 -19 80 48 187 205 322 119 103 157 151 157 199 0 29 -5 36
-35 49 -40 17 -147 18 -231 3 -168 -30 -383 -117 -646 -263 -96 -53 -179 -96
-184 -96 -5 0 -36 27 -69 61 -90 91 -210 190 -307 253 -165 107 -287 150 -488
171 -200 22 -272 19 -355 -11 -104 -38 -128 -39 -230 -8 -83 25 -106 28 -304
32 -279 5 -305 2 -386 -54 l-65 -44 -172 36 c-322 66 -430 98 -617 183 -169
78 -228 90 -489 102 -240 10 -289 18 -487 72 -71 20 -227 57 -345 82 -118 25
-248 56 -289 69 -69 22 -78 23 -130 10 -95 -24 -519 -34 -931 -24 -432 12
-658 30 -744 59 -79 28 -106 26 -273 -18z m7 -121 l25 -20 -26 0 c-33 0 -89
19 -89 31 0 17 65 9 90 -11z m2052 8 c3 -8 48 -14 131 -19 118 -7 212 -26 247
-49 13 -9 13 -11 0 -20 -8 -5 -21 -7 -29 -5 -29 11 -51 -5 -51 -37 0 -22 -4
-29 -14 -25 -8 3 -32 9 -53 13 -65 12 -113 41 -113 69 0 27 -18 32 -51 14 -16
-8 -26 -7 -44 5 -34 23 -42 20 -55 -16 l-11 -33 -40 44 c-21 24 -39 47 -39 52
0 7 34 14 92 17 14 1 28 -3 30 -10z m-244 -14 c81 -6 83 -7 66 -25 -9 -10 -14
-27 -11 -39 8 -30 -20 -40 -107 -40 -96 0 -121 10 -129 49 -5 25 -11 31 -32
31 -24 0 -25 -2 -19 -35 l6 -35 -44 0 c-25 0 -73 3 -108 7 -57 6 -63 8 -72 35
-14 39 -55 40 -60 1 -3 -27 -4 -28 -78 -31 -94 -4 -118 2 -132 33 -14 31 -54
34 -63 4 -9 -28 -44 -39 -124 -39 -85 0 -106 13 -97 61 l6 34 457 -2 c252 -2
495 -5 541 -9z m-1358 -7 c38 -19 39 -47 2 -47 -42 0 -164 39 -157 50 9 14
126 12 155 -3z m298 -26 c5 -36 -22 -51 -92 -51 -76 0 -110 16 -114 53 l-3 28
103 -3 c101 -3 103 -4 106 -27z m-635 -61 c145 -22 247 -26 263 -10 7 7 50 1
135 -19 68 -16 243 -55 389 -86 357 -76 401 -89 385 -115 -10 -15 -66 -9 -300
37 -383 74 -523 111 -569 151 -18 16 -19 16 -12 -25 14 -91 84 -252 137 -316
l27 -32 320 -5 c306 -5 322 -6 349 -26 20 -15 29 -31 31 -57 3 -31 0 -37 -21
-42 -14 -4 -36 -5 -48 -3 -23 4 -23 5 6 17 l30 13 -30 14 c-44 19 -66 17 -72
-7 -6 -21 -8 -22 -172 -15 -178 8 -214 2 -226 -34 -9 -27 0 -37 19 -21 34 28
81 31 256 16 205 -19 292 -34 298 -54 4 -12 -14 -13 -109 -8 -341 19 -477 30
-499 40 -40 19 -31 48 25 84 78 51 71 71 -11 34 -60 -27 -88 -72 -149 -233
-29 -78 -58 -156 -64 -172 l-12 -29 -67 64 c-37 35 -100 90 -140 122 -40 32
-70 62 -67 67 3 5 34 7 68 4 99 -9 257 35 257 72 0 13 -9 14 -57 7 -144 -20
-357 18 -384 69 -14 27 -3 53 29 67 15 7 93 19 175 26 81 7 150 15 154 19 3 3
-21 18 -53 32 -259 116 -380 189 -458 275 -63 71 -63 116 2 104 18 -3 92 -15
165 -25z m2461 -1 c-10 -17 -86 -49 -116 -49 -42 0 -38 36 5 49 47 13 120 14
111 0z m-1304 -29 c118 -5 223 -12 233 -15 22 -9 22 -25 -1 -25 -10 0 -42 -16
-72 -35 -30 -19 -59 -35 -63 -35 -5 0 -28 14 -52 31 l-43 31 -31 -22 c-26 -20
-37 -22 -92 -16 -76 7 -331 67 -323 75 6 6 111 17 184 19 25 1 142 -3 260 -8z
m360 -10 c0 -5 -12 -10 -26 -10 -14 0 -23 4 -19 10 3 6 15 10 26 10 10 0 19
-4 19 -10z m240 0 c0 -5 -9 -10 -21 -10 -11 0 -17 5 -14 10 3 6 13 10 21 10 8
0 14 -4 14 -10z m770 0 c0 -5 -9 -10 -21 -10 -11 0 -17 5 -14 10 3 6 13 10 21
10 8 0 14 -4 14 -10z m85 0 c4 -6 -5 -10 -20 -10 -15 0 -24 4 -20 10 3 6 12
10 20 10 8 0 17 -4 20 -10z m286 -81 c60 -26 79 -55 124 -189 58 -169 69 -280
29 -280 -48 0 -89 65 -125 197 -27 99 -73 200 -106 235 -29 30 -25 58 7 58 12
0 43 -10 71 -21z m166 -5 c45 -29 113 -158 142 -269 25 -96 7 -242 -27 -221
-32 19 -74 100 -83 159 -14 83 -52 195 -94 274 -19 36 -32 70 -29 75 8 13 61
2 91 -18z m243 3 c67 -32 126 -249 117 -427 -5 -113 -37 -204 -62 -179 -23 23
-74 162 -106 287 -16 67 -48 157 -74 210 -25 52 -45 103 -45 114 0 19 4 20 73
14 39 -4 83 -13 97 -19z m-1574 -7 c57 -28 154 -131 154 -164 0 -17 -6 -26
-16 -26 -19 0 -215 189 -208 201 8 14 24 11 70 -11z m145 -6 c67 -34 168 -166
155 -201 -5 -12 -10 -12 -37 4 -55 32 -189 185 -189 216 0 10 33 1 71 -19z
m151 0 c15 -8 47 -42 71 -76 81 -115 98 -168 53 -168 -34 0 -75 37 -97 87 -10
24 -39 71 -65 104 -60 78 -47 96 38 53z m136 0 c89 -44 147 -130 154 -229 2
-42 0 -50 -15 -53 -27 -6 -65 34 -102 108 -18 37 -50 86 -70 109 -43 52 -57
76 -48 85 11 11 28 7 81 -20z m415 17 c14 -5 48 -30 76 -55 57 -51 82 -60 57
-21 -53 82 -50 74 -30 82 30 11 87 -28 129 -92 56 -84 87 -187 93 -310 l4
-100 -27 25 c-40 37 -63 89 -95 212 -29 115 -35 127 -50 112 -7 -7 -3 -29 9
-64 21 -62 45 -250 36 -280 -9 -28 -50 -26 -80 4 -26 26 -45 83 -45 135 0 83
-66 256 -114 300 -30 28 -33 48 -8 54 9 3 18 5 19 6 1 0 13 -3 26 -8z m-984
-29 c105 -36 66 -52 -130 -52 -118 0 -148 9 -130 38 27 43 156 50 260 14z
m892 1 c69 -58 129 -197 144 -330 8 -69 -1 -82 -38 -53 -37 29 -68 85 -87 154
-23 83 -38 83 -42 -1 -3 -66 -4 -68 -28 -65 -30 4 -70 45 -70 74 0 11 -18 63
-40 114 -22 52 -40 98 -40 103 0 29 27 14 95 -50 41 -40 77 -70 80 -68 2 3
-14 32 -35 64 -22 33 -40 66 -40 73 0 23 66 14 101 -15z m990 -4 c77 -25 152
-62 197 -96 32 -24 33 -26 27 -81 -25 -222 -67 -442 -93 -489 -5 -9 -16 10
-31 54 -13 38 -38 91 -57 119 -36 57 -50 100 -59 189 -10 105 -27 188 -51 251
-21 57 -22 74 -4 74 4 0 36 -9 71 -21z m-2197 -46 c42 -41 29 -80 -22 -66 -13
3 -25 -3 -36 -18 -22 -32 -32 -16 -16 30 10 33 10 42 -4 63 -9 13 -13 27 -10
30 10 11 62 -12 88 -39z m-415 -41 c117 -23 218 -45 224 -51 10 -10 -44 -29
-168 -57 -74 -16 -356 -31 -398 -21 -30 8 -71 48 -108 106 -23 36 -26 47 -17
59 21 25 222 10 467 -36z m761 -12 c0 -5 -9 -10 -20 -10 -11 0 -20 5 -20 10 0
6 9 10 20 10 11 0 20 -4 20 -10z m-159 -26 c142 -26 1013 -226 1032 -236 27
-14 15 -33 -19 -30 -54 6 -1069 234 -1102 248 -18 7 -31 18 -27 24 8 13 18 13
116 -6z m3332 -99 c52 -65 102 -170 127 -269 21 -83 27 -157 11 -140 -5 5 -37
72 -70 149 -53 123 -82 173 -178 306 -13 17 -20 36 -17 40 10 17 86 -35 127
-86z m45 81 c95 -50 207 -250 246 -438 23 -113 22 -136 -10 -144 -42 -11 -78
7 -82 39 -3 26 11 37 23 17 3 -5 10 -10 16 -10 5 0 -2 23 -16 50 -14 28 -46
105 -70 171 -48 130 -91 209 -155 282 l-42 47 32 0 c17 0 43 -6 58 -14z m717
-36 l22 -20 27 21 c21 17 34 20 64 14 69 -13 109 -44 131 -100 11 -29 11 -29
6 11 -7 56 10 70 60 54 70 -23 97 -107 96 -300 0 -70 -4 -128 -11 -140 -11
-20 -13 -21 -30 -5 -11 10 -29 41 -41 71 -13 30 -26 54 -30 54 -10 0 -29 -82
-29 -124 0 -42 17 -57 22 -19 9 79 65 -12 95 -155 10 -45 21 -82 25 -82 4 0 9
50 10 112 2 78 7 113 16 116 6 2 16 -7 21 -20 14 -35 13 -7 -4 64 -16 73 -31
303 -21 342 9 35 48 35 101 0 85 -57 85 -56 85 -170 0 -139 -40 -325 -76 -355
-12 -10 -17 -5 -31 30 -9 22 -20 41 -25 41 -11 0 -11 2 17 -69 29 -69 49 -160
61 -271 8 -67 9 -54 14 121 4 166 8 199 23 223 18 26 19 27 38 10 26 -23 56
-107 64 -179 8 -75 14 -95 26 -95 14 0 11 85 -6 150 -8 31 -27 84 -42 116 -25
54 -27 70 -28 180 0 88 4 125 14 137 7 10 17 17 21 17 9 0 107 -85 197 -172
l73 -70 -93 -186 c-68 -138 -99 -190 -117 -199 -27 -13 -38 -52 -39 -134 -1
-26 -7 -51 -13 -56 -7 -6 -42 -13 -77 -17 -36 -3 -75 -13 -88 -21 -22 -15 -23
-15 -23 14 0 23 -5 30 -22 33 -37 5 -58 60 -59 153 l-1 80 -18 -50 c-10 -27
-19 -71 -19 -97 -1 -41 4 -54 32 -85 84 -95 125 -184 112 -244 l-7 -30 -27 43
c-37 56 -142 156 -214 202 -62 40 -77 60 -77 105 0 37 10 38 81 11 l52 -19
-21 22 c-11 12 -24 34 -27 49 -6 23 -2 29 25 43 33 17 38 50 8 50 -27 0 -35
14 -58 103 -12 45 -24 82 -27 82 -2 0 -1 -54 3 -119 4 -66 4 -127 1 -136 -9
-22 -41 -4 -55 32 -24 60 -74 263 -88 358 -13 89 -56 241 -71 255 -3 3 -3 -11
1 -30 18 -105 45 -336 41 -351 -3 -9 -15 -19 -26 -22 -15 -4 -26 4 -45 35 -31
48 -40 45 -19 -8 18 -47 55 -190 55 -215 0 -19 -10 -18 -93 8 -26 8 -52 23
-57 33 -28 52 6 236 48 259 24 14 22 105 -4 129 -10 10 -37 48 -58 85 -22 37
-44 67 -49 67 -11 0 -12 6 43 -124 l43 -100 -19 -65 c-11 -35 -24 -66 -30 -68
-7 -2 -28 13 -47 34 l-36 37 34 -89 c34 -88 44 -158 26 -170 -11 -6 -91 23
-91 34 0 3 -9 82 -20 175 -22 183 -44 259 -33 117 6 -82 6 -83 -15 -76 -27 8
-27 7 0 -76 24 -76 20 -104 -14 -94 -64 19 -88 55 -88 128 0 66 9 87 37 87
l24 0 -25 33 c-13 17 -50 93 -81 167 -31 74 -74 168 -95 208 -42 77 -39 92 13
78 74 -19 131 -90 189 -235 32 -82 38 -91 38 -61 0 19 -16 77 -36 128 -21 51
-35 95 -31 98 3 3 23 -4 46 -15 53 -27 63 -27 55 3 -4 19 1 32 21 52 24 24 32
26 78 21 29 -3 63 -9 76 -13 18 -5 22 -4 17 5 -4 7 -5 19 -2 28 9 21 71 11
101 -17z m-1618 -197 c17 -32 17 -35 0 -81 -10 -26 -40 -105 -66 -177 -53
-145 -72 -185 -96 -205 -22 -18 -31 -3 -40 67 -3 29 -15 83 -26 121 -10 37
-19 89 -19 116 0 50 33 260 52 331 l10 40 84 -89 c46 -50 91 -105 101 -123z
m78 184 l30 -12 -30 -6 -30 -6 29 -12 c23 -9 36 -9 58 0 41 17 173 -2 218 -31
12 -7 12 -12 3 -21 -10 -10 -6 -17 19 -32 29 -17 31 -20 15 -32 -9 -7 -47 -15
-84 -19 -38 -3 -81 -10 -98 -15 -25 -8 -17 -9 42 -10 57 -1 71 -4 67 -15 -3
-9 9 -17 40 -26 53 -15 70 -31 61 -59 -4 -13 2 -26 17 -41 19 -18 20 -22 8
-30 -8 -5 -21 -10 -27 -10 -7 0 -13 -4 -13 -10 0 -5 14 -10 31 -10 61 0 109
-78 109 -177 0 -33 -4 -43 -16 -43 -47 0 -294 202 -294 240 0 11 -17 28 -42
42 -27 15 -45 33 -51 53 -5 17 -21 43 -36 58 -21 23 -23 29 -11 37 22 14 2 40
-53 70 -38 20 -47 30 -47 52 0 15 -4 38 -9 51 -6 14 -7 28 -3 31 7 8 55 -1 97
-17z m613 -3 c65 -32 145 -119 166 -180 9 -26 16 -52 16 -57 0 -5 -28 17 -62
48 -60 55 -145 105 -178 105 -8 0 8 -13 35 -29 68 -39 255 -257 255 -297 0
-11 -19 -14 -83 -14 -45 0 -98 -4 -117 -10 -29 -8 -39 -6 -70 14 -35 23 -128
123 -163 176 -20 29 -23 133 -6 193 21 76 112 99 207 51z m-3530 -2 c17 -11 5
-40 -19 -47 -20 -7 -59 10 -59 25 0 22 53 37 78 22z m7839 -19 c7 -21 -64 -34
-204 -34 -139 0 -193 6 -193 22 0 19 73 27 229 26 114 -1 166 -6 168 -14z
m-7687 -7 c0 -16 -18 -31 -27 -22 -8 8 5 36 17 36 5 0 10 -6 10 -14z m140 3
c109 -13 815 -150 983 -190 70 -17 127 -35 127 -40 0 -5 -30 -9 -67 -9 -37 0
-63 -4 -58 -8 10 -8 212 -72 228 -72 5 0 5 20 1 45 -7 51 -3 53 44 25 25 -16
32 -25 26 -38 -4 -9 -9 -32 -12 -50 -4 -32 -6 -34 -41 -29 -20 3 -54 12 -76
20 -43 16 -322 66 -525 93 -77 10 -184 16 -279 15 -201 -1 -414 30 -396 59 3
5 36 10 73 11 l67 0 -73 18 c-153 38 -82 56 103 26 50 -8 232 -34 405 -60 173
-25 328 -47 345 -50 18 -3 26 -2 20 4 -12 11 -129 34 -511 101 -391 67 -484
92 -484 125 0 18 -5 18 100 4z m6176 -73 l28 -23 -49 -52 c-56 -60 -103 -96
-112 -87 -4 4 10 23 30 44 52 53 49 72 -9 72 -104 0 -354 -85 -589 -201 -148
-73 -223 -122 -251 -165 -22 -32 -8 -44 52 -44 52 0 84 21 65 44 -11 13 -11
17 4 22 9 4 28 0 42 -7 14 -8 34 -13 45 -11 27 5 22 -26 -7 -40 -14 -6 -25
-17 -25 -24 0 -15 17 -21 85 -29 28 -4 64 -11 81 -16 33 -10 74 -43 74 -59 0
-15 -42 -12 -70 5 -51 29 -75 36 -194 55 -190 31 -236 50 -236 95 0 62 202
190 501 318 200 85 336 124 446 126 52 1 66 -3 89 -23z m1470 -28 c-32 -73
-38 -102 -26 -133 16 -42 32 -25 58 61 25 84 34 100 50 90 7 -4 5 -25 -4 -59
-36 -138 -25 -411 21 -509 13 -29 30 -61 37 -70 15 -21 6 -32 -21 -23 -43 13
-89 153 -108 330 -6 55 -7 57 -13 27 -12 -50 -20 -50 -20 0 0 25 -3 61 -7 79
-6 30 -7 31 -12 11 -3 -13 -10 -22 -16 -20 -12 4 -12 54 -1 121 6 31 5 47 -2
47 -6 0 -13 -9 -17 -19 -3 -11 -15 -31 -26 -45 -17 -22 -28 -26 -73 -26 -76 0
-146 -11 -146 -23 0 -7 36 -8 104 -4 l104 7 6 -118 c9 -137 21 -227 42 -299
22 -81 34 -63 13 19 -21 80 -36 226 -25 254 12 31 27 0 33 -67 3 -35 12 -72
20 -81 11 -12 13 -28 9 -53 -4 -20 -2 -52 4 -71 12 -36 30 -46 30 -17 0 15 3
14 22 -5 37 -37 14 -44 -159 -50 -238 -7 -323 6 -323 53 0 21 26 27 168 40 73
7 137 16 141 21 5 5 5 38 2 73 -6 53 -12 68 -35 87 -23 20 -38 24 -98 24 -70
0 -71 0 -53 20 18 20 17 20 -26 20 -25 0 -60 9 -82 20 -22 12 -61 22 -90 23
l-51 2 -9 -42 c-4 -24 -12 -43 -18 -43 -17 0 -9 -65 16 -125 13 -33 24 -69 24
-80 0 -36 -37 20 -55 83 -24 84 -37 108 -60 104 -40 -8 -46 -21 -39 -101 6
-62 5 -74 -6 -64 -30 29 -19 301 17 424 19 62 67 120 85 102 10 -10 10 -33 0
-109 -11 -95 -9 -137 4 -72 4 18 11 49 16 69 l9 36 138 11 c76 7 177 12 226
12 101 0 122 8 142 57 14 33 16 34 30 17 13 -18 15 -18 37 8 34 41 38 33 13
-24z m-463 9 c11 -33 -1 -51 -26 -41 -19 7 -33 47 -22 64 12 19 38 6 48 -23z
m192 1 c15 -37 7 -53 -24 -43 -16 5 -21 15 -21 41 0 45 26 46 45 2z m73 -22
c-2 -11 -8 -21 -15 -23 -15 -5 -28 40 -18 64 6 17 7 17 21 -2 8 -11 13 -29 12
-39z m385 47 c-7 -2 -19 -2 -25 0 -7 3 -2 5 12 5 14 0 19 -2 13 -5z m-567 -29
c4 -14 2 -30 -5 -37 -17 -17 -45 15 -36 42 9 29 33 26 41 -5z m-7409 -12 c35
-47 105 -193 99 -207 -13 -35 -99 31 -109 85 -4 17 -18 46 -32 64 -33 43 -34
86 -2 86 14 0 32 -11 44 -28z m7673 14 c0 -16 -18 -31 -27 -22 -8 8 5 36 17
36 5 0 10 -6 10 -14z m303 -69 c26 -52 10 -69 -19 -21 -13 22 -24 45 -24 52 0
24 25 7 43 -31z m-1893 -43 c0 -3 -10 -14 -22 -23 -22 -19 -18 -41 8 -41 8 0
27 12 41 28 l26 27 -6 -32 c-4 -18 -38 -96 -77 -174 -70 -142 -79 -174 -59
-226 5 -15 17 -58 24 -94 8 -37 46 -146 85 -243 38 -97 70 -181 70 -186 0 -26
-34 -5 -61 38 -41 63 -128 245 -136 283 -3 16 -14 35 -23 42 -11 8 -18 26 -18
47 0 19 -10 56 -22 83 -12 28 -19 56 -15 68 5 14 1 25 -10 33 -16 12 -15 14
10 34 15 12 36 22 45 22 26 0 141 182 126 198 -4 4 -336 -140 -354 -154 -2 -1
25 -17 59 -35 83 -44 51 -51 -36 -8 -74 36 -100 59 -67 59 20 0 50 36 39 46
-3 3 -22 -2 -43 -11 -43 -18 -60 -9 -51 27 5 19 34 35 157 87 130 55 279 109
303 111 4 0 7 -3 7 -6z m950 -110 c-9 -95 -17 -127 -33 -121 -6 2 -14 14 -17
28 -7 27 16 162 32 193 11 20 11 20 18 1 4 -11 4 -57 0 -101z m-8095 86 c4 -6
-6 -10 -22 -9 -25 0 -26 1 -8 9 11 5 21 9 22 9 1 1 5 -3 8 -9z m2808 -8 c50
-55 101 -284 77 -346 -9 -24 -13 -26 -25 -16 -24 20 -95 274 -95 339 0 44 16
53 43 23z m131 -11 c45 -50 82 -238 62 -317 l-8 -29 -23 28 c-30 34 -65 148
-72 237 -8 96 5 121 41 81z m145 -13 c16 -50 33 -218 26 -260 -7 -42 -30 -67
-46 -51 -16 16 -41 201 -36 261 8 81 37 107 56 50z m-395 -9 c53 -46 78 -122
82 -249 l4 -105 -18 57 c-20 67 -32 82 -32 42 0 -46 26 -130 55 -179 26 -45
55 -66 107 -79 34 -8 88 -53 88 -73 0 -13 -10 -15 -67 -10 -38 4 -88 13 -113
20 -44 13 -45 13 -50 62 -6 62 -30 68 -43 12 -6 -26 -18 -42 -38 -53 -16 -8
-29 -18 -29 -23 0 -15 -50 -22 -88 -12 -21 6 -53 22 -72 36 -18 13 -36 22 -39
19 -3 -3 3 -12 13 -20 30 -21 9 -30 -27 -12 -18 9 -63 19 -102 21 -85 6 -140
24 -268 88 -119 60 -224 129 -301 200 -63 57 -86 94 -86 135 l0 27 69 -7 c38
-3 97 -15 132 -26 65 -20 144 -74 133 -91 -13 -22 -86 -49 -133 -49 -39 0 -53
4 -60 19 -10 19 -100 81 -117 81 -11 0 24 -30 122 -105 39 -30 75 -55 81 -55
5 0 22 14 36 30 22 25 35 30 70 30 83 0 243 -57 282 -100 23 -25 7 -94 -22
-98 -12 -2 -27 -10 -33 -17 -16 -19 5 -28 52 -23 30 3 33 5 30 34 -4 47 16 58
91 50 204 -22 221 -20 177 19 -19 17 -20 17 -20 1 0 -11 -6 -16 -17 -14 -15 3
-18 15 -19 68 0 36 -4 95 -8 131 -7 55 -5 68 9 83 10 9 29 16 43 14 21 -2 28
-13 43 -57 21 -62 41 -236 33 -281 -11 -54 5 -32 26 38 26 83 28 207 6 271
-18 49 -15 61 10 40 16 -13 16 -12 6 7 -6 11 -18 27 -27 34 -24 20 -47 69 -41
86 9 22 32 17 70 -17z m-899 -29 c470 -48 565 -61 565 -79 0 -11 -26 -32 -32
-26 -2 2 -130 18 -284 35 -673 73 -809 92 -828 111 -18 17 81 10 579 -41z
m2062 3 c21 -26 55 -65 76 -86 20 -22 37 -45 37 -51 0 -7 -14 -34 -30 -60 -17
-26 -40 -78 -51 -114 -35 -114 -34 -112 -78 -112 -22 0 -46 7 -54 15 -20 19
-37 101 -37 177 0 97 56 278 86 278 7 0 30 -21 51 -47z m-2981 7 c51 -5 105
-15 120 -21 29 -11 29 -11 -41 -38 -39 -15 -100 -33 -135 -40 -36 -7 -87 -19
-113 -28 -48 -15 -51 -14 -147 16 -119 38 -129 38 -123 8 4 -18 -2 -25 -29
-35 -49 -17 -64 -15 -82 14 -39 58 2 110 95 124 78 11 349 11 455 0z m2454
-43 c11 -24 27 -75 35 -113 28 -123 36 -144 49 -144 9 0 15 19 19 55 5 52 32
115 50 115 27 0 65 -204 49 -265 -7 -24 -14 -31 -41 -33 -42 -4 -61 12 -61 54
0 36 -17 54 -31 33 -5 -8 -9 -25 -9 -40 0 -37 -18 -49 -75 -49 -84 0 -87 5
-87 155 1 134 12 213 38 253 22 34 43 27 64 -21z m5808 -124 c-5 -167 -15
-210 -57 -248 -17 -15 -26 -17 -39 -9 -50 31 -84 131 -86 251 -2 107 27 97 38
-14 7 -71 30 -127 49 -120 7 2 18 30 26 63 l14 59 16 -35 15 -35 4 31 c2 17
-3 49 -11 72 -11 31 -12 42 -3 42 8 0 11 12 8 35 -5 40 2 65 19 65 8 0 10 -43
7 -157z m-6532 112 c-25 -19 -46 -19 -46 0 0 10 10 15 33 15 30 -1 31 -1 13
-15z m-1147 -116 c119 -124 209 -202 291 -248 l55 -32 -75 67 c-145 130 -310
308 -297 320 17 17 66 -17 205 -140 274 -244 354 -291 591 -356 134 -36 272
-63 481 -95 91 -14 172 -28 181 -30 9 -3 21 -22 27 -43 16 -54 69 -327 77
-397 10 -98 8 -95 78 -95 65 0 107 -18 107 -46 0 -24 -46 -34 -123 -28 -69 5
-71 4 -45 -11 42 -24 52 -49 27 -71 -20 -18 -44 -19 -498 -17 -445 1 -752 13
-794 29 -28 10 -15 28 29 37 22 5 286 6 597 2 l557 -6 0 35 0 36 -22 -22 -21
-21 -451 6 c-496 7 -676 18 -714 43 -13 9 -35 41 -49 72 -14 31 -28 59 -32 62
-4 3 -13 30 -20 61 -6 31 -48 173 -92 315 -43 143 -86 295 -94 339 -7 44 -27
111 -44 148 -31 68 -61 160 -61 184 0 29 28 8 129 -98z m-211 56 c23 -29 47
-108 39 -130 -5 -12 -28 -15 -131 -15 -135 0 -156 4 -156 29 0 27 47 118 67
130 10 6 50 11 90 11 64 0 74 -2 91 -25z m817 -28 c37 -32 41 -57 10 -57 -14
0 -75 65 -75 80 0 19 27 9 65 -23z m-1105 -51 c-28 -57 -80 -122 -80 -102 0
13 52 111 77 144 38 51 40 30 3 -42z m1222 57 c19 -17 26 -97 9 -107 -27 -17
-81 49 -81 98 0 22 5 26 27 26 14 0 35 -7 45 -17z m-1282 -12 c0 -33 -79 -140
-123 -165 -62 -36 -110 -43 -133 -18 -11 11 -45 29 -77 41 -77 26 -191 91
-180 101 4 5 96 10 203 12 174 3 200 6 240 25 57 27 70 28 70 4z m2275 -11 c9
-17 19 -60 22 -95 5 -56 4 -65 -11 -65 -12 0 -16 -10 -16 -47 0 -61 -8 -72
-53 -80 -72 -11 -89 42 -33 104 51 58 60 81 58 151 -3 68 8 79 33 32z m-855 5
c17 -21 1 -150 -19 -150 -25 0 -52 50 -58 108 l-6 57 35 0 c20 0 41 -7 48 -15z
m140 0 c18 -22 26 -190 10 -210 -18 -21 -45 -3 -71 47 -26 51 -37 142 -19 163
16 19 64 19 80 0z m2291 -37 c85 -53 148 -113 133 -127 -5 -5 -20 -11 -33 -13
-14 -1 -26 -8 -28 -14 -3 -8 21 -13 69 -16 77 -5 171 -35 210 -68 l23 -20 -62
-60 c-72 -71 -91 -74 -172 -29 -86 48 -121 86 -121 130 0 28 -5 39 -19 44 -11
3 -31 21 -45 39 -14 19 -36 36 -50 40 -24 6 -28 12 -40 68 -4 15 -17 35 -30
43 -22 15 -28 15 -62 0 -39 -16 -64 -14 -64 5 0 20 46 30 131 27 83 -3 89 -5
160 -49z m3732 37 c-1 -5 -8 -14 -17 -20 -18 -11 -42 7 -31 25 8 13 51 9 48
-5z m-1425 -7 c-8 -24 -72 -48 -126 -48 -69 0 -65 17 8 40 67 22 123 25 118 8z
m-6657 -95 c73 -38 135 -73 136 -79 5 -16 -99 2 -159 28 -26 11 -48 27 -48 34
0 8 -17 22 -37 31 -34 16 -58 53 -35 53 5 0 69 -30 143 -67z m3692 12 l67 -45
-32 -58 c-52 -95 -62 -102 -137 -102 -36 0 -72 4 -80 9 -19 12 -8 93 19 136
11 18 20 43 20 57 0 62 53 63 143 3z m507 -20 c11 -27 29 -49 42 -54 47 -18
89 -90 64 -110 -38 -32 -175 167 -139 202 11 11 13 9 33 -38z m-160 -29 c30
-24 114 -96 185 -160 95 -85 153 -128 216 -161 110 -57 239 -100 359 -120 52
-8 125 -21 162 -27 129 -21 119 -41 -25 -48 l-102 -5 109 -20 c89 -16 110 -24
117 -40 7 -18 39 -230 54 -361 3 -29 1 -64 -5 -78 -8 -21 -6 -30 10 -46 24
-24 25 -33 3 -51 -36 -31 -777 -19 -854 14 -53 22 -109 75 -109 103 0 31 17
30 71 -1 33 -18 58 -25 99 -24 l55 1 -73 23 c-128 40 -160 79 -188 227 -8 45
-31 151 -49 233 -36 158 -75 381 -75 428 0 15 4 27 9 27 5 0 47 -35 93 -77 93
-85 198 -166 206 -158 3 3 3 6 1 8 -119 94 -153 124 -200 173 -56 60 -139 165
-139 177 0 14 17 5 70 -37z m4143 17 c-18 -2 -48 -2 -65 0 -18 2 -4 4 32 4 36
0 50 -2 33 -4z m-5595 -70 c17 -31 23 -59 23 -99 0 -31 -2 -58 -5 -61 -11 -11
-56 8 -71 31 -19 28 -30 113 -21 151 10 40 45 30 74 -22z m3392 18 c30 -11 72
-20 93 -21 20 0 37 -2 37 -4 0 -2 -16 -37 -35 -77 -19 -41 -38 -100 -43 -131
-10 -64 -40 -114 -88 -147 -35 -24 -54 -21 -54 9 0 10 -14 72 -31 137 -32 125
-32 146 1 220 22 51 21 51 120 14z m-2724 -78 c-4 -14 -14 -23 -26 -23 -39 0
-38 44 2 96 l23 29 3 -39 c2 -22 1 -50 -2 -63z m4719 -65 c9 -81 25 -182 37
-225 22 -80 23 -103 12 -185 -5 -39 -3 -49 10 -54 24 -9 27 -4 43 82 19 103
26 114 69 114 54 0 74 -15 74 -55 0 -26 7 -39 31 -58 l32 -25 -24 -12 c-13 -7
-48 -13 -79 -14 l-55 -1 2 50 c2 46 1 48 -12 31 -12 -16 -15 -58 -15 -210 -1
-135 -4 -186 -11 -173 -5 9 -13 36 -17 60 -7 36 -11 43 -37 47 -23 4 -31 11
-35 34 -4 26 -6 27 -19 13 -7 -10 -27 -17 -43 -17 -25 0 -29 4 -26 23 2 17 13
24 47 33 25 6 46 15 48 21 6 18 -39 43 -79 43 -33 0 -38 3 -38 23 0 29 38 147
53 165 8 10 16 7 39 -15 l29 -27 -16 44 c-33 92 -45 181 -44 318 0 75 2 133 4
127 2 -5 11 -76 20 -157z m-2898 102 c28 -95 124 -656 162 -940 12 -85 28
-193 37 -240 21 -116 17 -160 -18 -180 -19 -10 -31 -11 -38 -4 -5 5 -21 108
-35 229 -14 120 -39 313 -55 429 -16 116 -36 270 -45 341 -9 72 -25 172 -36
224 -10 51 -19 116 -19 143 0 41 3 49 17 46 11 -2 22 -21 30 -48z m-1197 11
c14 -10 35 -36 48 -59 25 -45 64 -222 52 -235 -17 -19 -88 44 -118 104 -9 19
-41 52 -70 74 -51 37 -54 41 -48 75 11 68 73 87 136 41z m-1414 -16 c20 -49
18 -75 -5 -75 -27 0 -51 26 -51 55 0 62 33 74 56 20z m3772 -6 c73 -18 78 -26
64 -109 -7 -39 -12 -101 -12 -139 0 -66 -2 -71 -45 -130 -25 -34 -52 -61 -60
-61 -9 0 -29 16 -46 35 -30 34 -32 34 -90 28 -49 -5 -60 -3 -65 11 -8 20 22
56 47 56 25 0 28 8 39 92 18 139 57 228 101 228 11 0 41 -5 67 -11z m-2921
-24 c8 -22 -6 -33 -17 -15 -13 20 -12 30 0 30 6 0 13 -7 17 -15z m4528 -15 c9
-15 -22 -60 -40 -60 -21 0 -19 47 3 59 22 13 29 13 37 1z m-1328 -33 c19 -19
36 -148 29 -225 -6 -66 -26 -110 -70 -151 l-25 -23 -46 37 c-58 48 -74 35 -17
-14 23 -20 42 -39 42 -43 0 -10 -87 -28 -138 -28 -91 0 -92 42 -5 115 l45 38
-2 106 c-3 155 -3 159 26 188 24 23 31 25 86 20 33 -3 67 -12 75 -20z m-2921
-37 c154 -8 197 -19 218 -53 9 -15 6 -23 -16 -42 -36 -31 -35 -35 5 -35 59 -1
177 -71 177 -106 0 -18 -3 -18 -51 6 -75 39 -190 50 -719 70 -402 15 -540 32
-540 67 0 9 -7 21 -17 28 -20 15 -11 30 30 52 22 12 68 19 147 23 139 7 558 2
766 -10z m1349 -25 c69 -18 85 -34 85 -86 0 -40 -21 -65 -46 -55 -13 5 -15 14
-10 38 l6 32 -33 -32 c-32 -31 -36 -32 -78 -23 -24 6 -66 11 -93 11 -41 0 -47
-2 -42 -17 12 -29 -28 12 -50 52 -16 31 -17 37 -4 49 48 48 153 60 265 31z
m892 -55 c28 -81 30 -155 6 -169 -17 -9 -17 -11 2 -25 19 -15 18 -15 -15 -16
-29 0 -38 6 -52 30 -9 17 -24 30 -32 30 -38 0 -31 94 12 173 34 64 51 59 79
-23z m2258 23 c6 -14 19 -23 32 -23 12 0 26 -8 32 -17 8 -15 10 -14 17 12 9
39 22 55 44 55 22 0 30 -19 30 -74 0 -54 -20 -82 -65 -89 -19 -3 -49 -15 -65
-27 -17 -12 -37 -19 -46 -16 -25 10 -37 57 -24 99 10 33 9 42 -6 58 -9 10 -14
25 -10 34 9 23 49 15 61 -12z m215 -60 c0 -34 -27 -113 -39 -113 -6 0 2 80 16
149 6 34 23 8 23 -36z m-1480 -34 c43 -62 49 -66 68 -47 9 9 15 9 23 1 12 -12
69 -165 72 -193 2 -18 -122 -63 -162 -58 -23 3 -18 7 38 38 72 39 90 63 45 58
-22 -2 -32 4 -50 30 -27 39 -82 169 -91 213 -8 44 7 32 57 -42z m-202 -22 c65
-146 78 -225 41 -251 -21 -14 -20 -15 20 -27 23 -7 53 -23 66 -37 25 -25 50
-95 40 -111 -3 -5 7 -23 21 -40 21 -26 24 -34 14 -46 -7 -9 -11 -17 -9 -18 2
-2 16 -10 30 -19 20 -13 25 -23 22 -42 -4 -20 0 -28 17 -34 l23 -9 -24 -16
c-13 -9 -33 -17 -44 -18 -23 -1 -16 -4 41 -19 38 -9 45 -16 78 -79 46 -88 66
-173 66 -287 0 -137 10 -216 26 -210 9 3 23 -14 39 -49 15 -30 65 -97 113
-150 48 -53 96 -111 106 -130 19 -30 19 -34 4 -57 -19 -28 -168 -133 -245
-172 -86 -43 -197 -74 -321 -91 -64 -9 -143 -21 -174 -27 -48 -9 -60 -8 -79 6
-16 10 -42 16 -79 15 l-55 -1 50 -14 50 -14 -75 4 c-89 3 -132 23 -150 67 -18
43 -4 62 53 71 25 3 54 11 64 18 15 9 11 10 -22 5 -22 -3 -92 -8 -155 -12 -94
-5 -121 -3 -146 10 -38 20 -164 152 -164 173 0 24 31 2 84 -60 48 -57 106
-105 106 -88 0 5 -30 44 -67 87 -38 42 -80 94 -94 114 -53 73 -159 468 -130
486 15 9 571 56 582 50 5 -4 12 -24 15 -46 5 -26 15 -46 30 -55 30 -20 88 -15
92 9 3 14 -4 17 -48 17 -59 0 -62 12 -11 47 44 30 144 50 342 68 170 15 219
25 219 46 0 16 -145 9 -674 -35 -236 -20 -461 -36 -501 -36 l-72 0 -7 31 c-3
16 -9 78 -12 137 -6 95 -5 110 11 125 17 17 17 19 -4 38 -44 41 -17 139 38
139 11 0 23 5 26 10 4 6 3 10 -2 9 -4 -1 -31 -1 -60 0 -66 1 -83 18 -83 79 0
58 -5 66 -52 85 -33 14 -38 20 -38 48 0 17 -12 58 -27 91 -24 54 -25 60 -10
75 14 15 34 15 194 4 98 -6 207 -14 243 -17 61 -5 64 -4 45 11 -19 16 -18 16
20 9 22 -3 56 -13 75 -22 32 -14 33 -16 12 -19 -22 -4 -21 -6 18 -53 46 -54
50 -75 18 -85 -21 -6 -20 -8 17 -25 22 -10 58 -22 79 -26 36 -6 39 -5 31 12
-4 10 -8 30 -9 43 -1 32 22 39 139 41 82 1 199 16 150 19 -27 1 -45 20 -45 46
0 12 21 45 46 75 34 40 44 58 39 74 -12 37 -18 126 -9 126 5 0 24 -33 42 -73z
m2650 -19 c7 -7 12 -29 12 -50 0 -31 -5 -40 -22 -47 -41 -15 -58 -3 -58 43 0
44 13 66 40 66 9 0 21 -5 28 -12z m-2228 -95 c20 -53 28 -163 12 -163 -5 0
-14 11 -20 25 -17 37 -62 196 -62 219 0 18 1 18 25 -4 14 -13 34 -47 45 -77z
m-3370 67 c139 -12 178 -26 257 -89 70 -55 88 -94 117 -253 49 -264 61 -294
153 -385 l63 -63 0 -212 c0 -241 -10 -330 -44 -405 -29 -62 -20 -60 -261 -68
-278 -9 -520 20 -658 80 -109 47 -265 154 -327 223 -88 98 -200 300 -240 430
-26 86 -22 104 22 100 29 -3 33 -7 44 -50 29 -115 109 -273 197 -386 56 -73
160 -167 231 -208 84 -50 90 -37 8 19 -81 55 -207 183 -275 279 -99 138 -124
223 -198 672 l-43 259 22 15 c29 19 28 29 -2 34 -54 11 -55 -8 -21 -228 31
-197 31 -221 5 -229 -38 -12 -58 3 -69 53 -27 118 -71 419 -62 428 9 10 942
-4 1081 -16z m4206 -110 c-13 -43 -14 -44 -15 -13 -1 18 5 44 11 59 19 40 21
8 4 -46z m-2579 -39 c49 -38 100 -96 122 -138 15 -30 79 -294 87 -364 l6 -56
-38 -6 c-49 -8 -184 -9 -184 -1 0 3 -13 98 -30 211 -36 247 -37 273 -10 280
19 5 18 7 -10 40 -35 39 -40 73 -11 73 11 0 41 -17 68 -39z m3998 19 c44 -17
18 -33 -46 -28 -62 4 -75 10 -64 27 8 14 75 14 110 1z m-3081 -107 c4 -14 3
-23 -3 -23 -14 0 -31 34 -31 62 0 22 0 22 14 3 7 -11 16 -30 20 -42z m790 -5
c17 -23 20 -66 9 -106 -5 -22 -8 -19 -29 25 -24 48 -30 84 -17 96 11 12 21 8
37 -15z m1279 3 c17 -16 -28 -35 -90 -39 -100 -7 -116 29 -22 47 45 9 97 5
112 -8z m282 9 c4 -6 -7 -10 -27 -10 -25 0 -29 3 -18 10 19 13 37 13 45 0z
m-1683 -37 c22 -25 58 -98 145 -297 137 -312 192 -445 218 -530 39 -123 25
-186 -22 -101 -32 59 -403 904 -403 919 0 30 38 36 62 9z m522 1 c35 -35 11
-61 -47 -50 -41 8 -100 43 -92 56 10 17 121 12 139 -6z m186 -40 c0 -3 -10
-38 -22 -77 -21 -71 -21 -73 -4 -172 31 -185 50 -605 27 -619 -14 -9 -24 41
-31 169 -7 120 -7 120 -6 -45 l1 -165 30 -5 c41 -7 38 -24 -5 -28 -19 -2 -37
-8 -40 -13 -8 -12 -102 -29 -161 -29 -42 0 -51 4 -66 27 -16 24 -18 54 -18
273 0 238 1 245 20 247 11 1 65 7 120 13 l100 12 0 171 c0 147 3 177 19 210
16 32 36 50 36 31z m278 -43 c-2 -9 -11 -17 -21 -19 -21 -4 -35 27 -17 38 19
12 42 0 38 -19z m472 -5 c0 -25 -29 -38 -102 -48 -83 -12 -132 0 -126 30 4 23
71 29 103 8 33 -21 58 -20 80 4 21 23 45 26 45 6z m-2750 -16 c6 -10 19 -77
31 -147 32 -202 55 -322 140 -733 188 -906 256 -1199 283 -1229 21 -23 20 -80
-1 -103 -19 -22 -70 -23 -97 -3 -17 13 -20 30 -22 127 -3 99 -22 206 -158 884
-86 425 -164 796 -175 825 -17 49 -41 257 -41 362 0 41 22 51 40 17z m1480
-65 c0 -95 18 -149 48 -143 14 3 16 14 14 70 -6 97 22 100 43 5 3 -16 20 -42
38 -59 l32 -30 -23 -15 -23 -16 27 -28 c50 -53 -3 -67 -77 -21 -91 58 -135
135 -125 219 6 56 24 103 38 103 4 0 8 -38 8 -85z m440 -84 l0 -168 -77 -7
c-42 -3 -91 -6 -110 -6 l-33 0 0 175 0 175 110 0 110 0 0 -169z m2943 8 c-21
-21 -303 -40 -303 -20 0 13 50 23 160 30 106 7 156 3 143 -10z m288 -76 c59
-94 64 -135 79 -638 6 -176 14 -349 19 -384 13 -86 45 -132 116 -164 69 -32
69 -35 12 -216 -24 -75 -54 -185 -67 -246 -34 -167 -42 -190 -65 -190 -12 0
-29 17 -48 46 -24 39 -29 61 -34 139 -5 69 -3 91 5 86 7 -4 12 -24 12 -45 0
-54 11 -101 23 -101 12 0 2 1064 -13 1290 -10 153 -30 253 -57 282 -23 25 -80
23 -204 -8 -117 -29 -165 -51 -226 -100 -56 -46 -67 -44 -59 9 7 44 52 174 68
194 25 32 254 91 356 92 52 1 53 1 83 -46z m-3558 -133 c39 -31 87 -135 87
-189 0 -55 -11 -79 -27 -59 -18 22 -64 118 -89 186 -31 82 -22 102 29 62z
m4107 1 c0 -20 -33 -32 -131 -46 -122 -17 -209 -19 -209 -5 0 15 42 29 134 44
94 16 206 20 206 7z m-8599 -98 c87 -266 276 -482 534 -610 174 -87 246 -101
580 -114 143 -5 280 -13 305 -17 l45 -7 -54 -57 c-97 -104 -86 -102 -505 -95
-198 3 -412 11 -475 17 -62 6 -115 9 -118 7 -2 -3 11 -25 30 -50 44 -58 111
-198 181 -381 82 -213 158 -526 128 -526 -17 0 -20 10 -52 149 -16 73 -35 142
-42 154 l-13 22 -3 -27 c-2 -14 11 -94 28 -178 17 -84 28 -155 25 -158 -12
-12 -180 -50 -188 -43 -4 5 -25 75 -46 157 -60 230 -112 372 -197 533 -77 146
-146 242 -239 336 -93 94 -259 225 -283 225 -13 -1 -11 -5 8 -21 180 -147 229
-192 292 -265 144 -169 194 -255 275 -474 85 -228 122 -360 103 -360 -12 0
-67 122 -75 165 -16 92 -153 375 -249 515 -110 160 -343 374 -511 468 -216
121 -327 136 -1106 151 -376 7 -461 11 -485 24 l-29 15 50 9 c28 4 362 8 742
8 381 0 680 3 665 7 -15 4 -110 17 -212 28 -108 12 -189 25 -197 33 -6 6 -37
68 -67 136 -31 68 -74 157 -96 198 -22 41 -40 76 -40 78 0 11 90 13 652 14
l616 1 23 -67z m2443 37 c17 -19 27 -72 17 -89 -6 -9 -43 -15 -107 -20 l-99
-6 95 -12 c97 -13 120 -25 120 -64 0 -32 22 -67 44 -71 36 -7 166 10 183 24
14 11 13 13 -7 18 -13 3 -28 14 -34 23 -22 36 61 76 92 45 9 -9 12 -9 12 0 0
17 -39 39 -81 46 -38 7 -62 27 -73 62 -5 15 -1 24 11 29 21 9 233 20 233 12 0
-28 44 -224 105 -462 40 -159 76 -307 79 -327 16 -92 -45 -31 -115 117 -56
118 -93 229 -119 355 -10 50 -21 94 -24 97 -13 14 -15 -6 -6 -63 28 -174 124
-423 213 -556 64 -96 79 -131 113 -282 20 -88 22 -111 12 -118 -8 -6 -173 -7
-398 -3 -215 3 -391 2 -398 -3 -18 -12 141 -22 378 -22 324 -1 467 -19 420
-51 -21 -15 -774 -5 -1550 20 -769 25 -1020 37 -1033 50 -18 18 13 40 61 43
l47 3 -58 14 c-78 19 -102 40 -121 106 -9 30 -21 57 -26 60 -35 22 22 25 420
25 271 0 448 4 480 11 117 25 224 181 276 405 21 90 26 142 30 299 6 249 11
292 32 299 9 3 185 4 390 3 311 -2 374 -5 386 -17z m5426 -63 c3 -45 10 -71
20 -77 23 -15 33 -8 55 36 l19 39 14 -49 c12 -44 12 -53 -2 -83 -21 -44 -22
-131 -1 -139 13 -5 35 -61 35 -91 0 -15 -68 3 -92 25 -23 19 -23 51 -1 67 39
29 4 115 -47 115 -47 0 -65 -26 -35 -50 16 -14 20 -30 7 -30 -19 0 -32 56 -32
135 0 96 13 112 26 33 l8 -53 4 56 c4 68 -10 109 -37 109 -24 0 -44 -35 -63
-106 l-12 -49 -6 35 c-4 27 -12 38 -37 50 -34 16 -42 40 -20 58 22 18 111 41
152 39 l40 -2 5 -68z m618 -7 l10 -29 -64 -6 c-78 -9 -176 4 -182 24 -3 10 0
12 12 8 10 -4 22 2 32 19 l17 25 28 -27 29 -28 0 27 c0 34 13 34 38 0 22 -30
20 -31 37 23 7 22 30 3 43 -36z m72 16 c0 -25 -22 -51 -33 -39 -11 10 -8 48 5
61 15 15 28 6 28 -22z m124 -8 c-3 -18 -10 -49 -15 -68 -11 -45 -11 -73 0 -66
4 3 11 24 15 47 14 85 17 27 6 -81 -8 -69 -16 -107 -21 -98 -5 7 -9 27 -10 43
0 17 -7 -7 -14 -53 -17 -113 -24 -117 -41 -27 -21 115 29 335 77 335 5 0 6
-15 3 -32z m66 26 c0 -13 -21 -44 -30 -44 -14 0 -12 24 2 38 13 13 28 16 28 6z
m-843 -56 c-3 -7 -5 -2 -5 12 0 14 2 19 5 13 2 -7 2 -19 0 -25z m-117 -39 c0
-10 -4 -19 -10 -19 -5 0 -10 12 -10 26 0 14 4 23 10 19 6 -3 10 -15 10 -26z
m407 -39 c-9 -102 -26 -124 -27 -33 0 76 6 103 23 103 6 0 8 -24 4 -70z m387
8 c-19 -72 -18 -265 2 -366 9 -45 14 -85 10 -89 -14 -14 -30 20 -37 79 -9 74
-31 98 -89 98 -80 0 -97 32 -27 50 81 22 91 25 91 35 1 6 -23 11 -53 13 -44 3
-62 9 -88 33 -19 16 -39 29 -46 29 -19 0 -37 -21 -37 -42 0 -27 -44 -44 -76
-29 -30 13 -29 42 2 55 l22 10 -20 27 c-27 36 -18 96 15 108 12 4 81 11 154
15 72 3 142 10 155 15 12 6 26 10 29 10 3 1 0 -22 -7 -51z m-4105 -283 c39
-82 68 -151 66 -154 -11 -11 -68 58 -95 114 -40 86 -90 232 -89 263 0 31 0 31
118 -223z m4361 23 c-10 -69 -39 -140 -61 -154 -23 -14 -49 35 -49 93 0 62 13
66 41 14 16 -30 18 -31 28 -14 5 11 15 60 21 109 6 49 14 100 18 114 12 45 14
-88 2 -162z m-1024 25 c5 -16 9 -106 9 -202 0 -130 3 -175 13 -178 36 -13 -11
-63 -60 -63 -78 0 -75 144 5 203 26 20 28 26 24 66 -3 24 -11 47 -17 51 -14 9
-15 48 -5 111 8 46 20 50 31 12z m488 -2 c12 -19 -7 -41 -45 -51 -28 -8 -40
-17 -45 -34 -12 -48 -1 -70 46 -93 25 -11 45 -27 45 -34 0 -19 -82 -34 -101
-19 -34 29 -41 151 -12 215 10 22 18 25 59 25 26 0 50 -4 53 -9z m67 -151 c28
-151 61 -226 99 -224 14 1 36 5 49 9 l23 8 -26 -39 c-14 -22 -28 -55 -32 -74
-21 -122 -27 -143 -56 -176 -36 -41 -48 -43 -48 -9 0 33 -38 71 -98 97 -63 28
-92 55 -92 90 0 38 25 37 140 -7 50 -19 96 -35 102 -35 17 0 1 92 -26 152 -33
73 -91 367 -68 343 5 -5 20 -66 33 -135z m-1537 80 c7 -7 -6 -10 -42 -10 -49
0 -62 7 -44 24 9 10 72 0 86 -14z m1843 -57 c-3 -10 -5 -4 -5 12 0 17 2 24 5
18 2 -7 2 -21 0 -30z m-3767 -65 c0 -38 -4 -68 -9 -68 -18 0 -34 102 -21 135
17 44 30 15 30 -67z m76 65 c10 -39 10 -205 0 -228 l-8 -20 -8 20 c-12 29 -12
255 0 255 5 0 13 -12 16 -27z m3029 -48 c0 -11 -10 -24 -21 -30 -12 -6 -29
-16 -37 -23 -12 -10 -16 -9 -21 4 -18 46 3 76 49 72 22 -2 30 -8 30 -23z
m-3170 -20 c0 -38 -106 -55 -134 -21 -15 18 2 37 40 45 51 11 94 -1 94 -24z
m2755 12 c0 -19 -10 -27 -26 -20 -21 8 -17 33 6 33 11 0 20 -6 20 -13z m-2930
-42 c42 -61 63 -112 49 -120 -20 -13 -35 3 -67 68 -50 101 -39 134 18 52z
m-5390 -15 c161 -45 361 -164 320 -190 -8 -5 -35 -10 -60 -11 -38 -1 -33 -3
28 -11 84 -10 144 -28 149 -44 6 -19 -24 -21 -242 -12 -334 12 -392 17 -418
38 l-22 18 28 13 27 12 -37 21 c-40 23 -53 52 -67 150 l-8 49 114 -6 c69 -3
142 -14 188 -27z m9250 -19 c0 -14 -50 -51 -70 -51 -23 0 -44 26 -36 45 6 17
106 22 106 6z m-200 -44 c0 -13 14 -43 31 -67 l31 -43 -46 6 c-45 6 -138 40
-163 60 -24 18 -13 36 25 42 20 3 51 10 67 14 48 14 55 12 55 -12z m-1016 -15
c2 -10 7 -46 11 -82 10 -104 33 -182 65 -222 40 -50 52 -83 52 -148 1 -72 -26
-136 -64 -156 -16 -8 -83 -20 -149 -26 -184 -18 -389 9 -389 51 0 9 152 21
264 21 37 0 95 -7 127 -15 56 -15 62 -15 104 4 52 23 75 61 75 125 0 37 -7 54
-44 103 -25 33 -51 82 -60 113 -19 68 -38 222 -30 243 7 19 31 12 38 -11z
m556 -9 c0 -20 -3 -24 -11 -16 -7 7 -9 19 -6 27 10 24 17 19 17 -11z m-2972 5
c7 -7 12 -31 12 -55 0 -39 -2 -43 -24 -43 -18 0 -23 -5 -23 -25 0 -32 -53
-102 -198 -258 -147 -158 -183 -183 -278 -193 l-72 -8 49 -7 c49 -8 76 -23 63
-35 -15 -16 -314 -25 -627 -19 -385 6 -472 12 -497 31 -17 13 -17 15 1 29 11
8 36 15 55 16 l36 1 -42 10 c-49 11 -87 50 -103 106 -13 48 -13 75 1 89 9 9 5
20 -15 43 -22 27 -37 90 -21 90 3 0 36 -23 73 -52 182 -139 403 -195 702 -176
244 15 375 74 695 314 61 45 126 98 144 118 37 39 50 43 69 24z m3112 -52 c0
-13 -6 -29 -13 -35 -19 -15 -73 -25 -93 -17 -15 6 -12 12 16 41 42 43 90 49
90 11z m-527 -53 c-7 -2 -19 -2 -25 0 -7 3 -2 5 12 5 14 0 19 -2 13 -5z m478
-83 c54 -5 54 -5 54 -40 0 -33 -2 -35 -37 -38 -29 -2 -38 -8 -38 -21 0 -10 7
-24 16 -32 31 -26 52 -86 63 -184 10 -95 10 -101 -9 -114 -12 -8 -20 -25 -20
-41 0 -66 -31 -78 -94 -35 -20 14 -67 32 -104 40 -37 9 -78 18 -92 22 -14 3
-29 11 -35 17 -5 7 -18 15 -27 19 -24 9 -23 32 3 58 16 16 18 23 8 35 -31 37
-34 314 -3 314 8 0 17 7 20 15 4 8 12 15 19 15 28 0 27 -58 -3 -93 -25 -28 -6
-31 22 -4 15 15 26 37 26 53 l0 27 25 -27 c40 -43 105 -27 119 30 7 25 8 25
20 8 9 -12 32 -20 67 -24z m-369 -16 c4 -21 7 -122 7 -224 l1 -185 -65 3 c-40
2 -65 8 -65 15 0 22 72 392 81 415 13 34 33 22 41 -24z m-86 24 c18 -29 -65
-50 -108 -27 -21 11 -21 12 -3 25 23 17 101 18 111 2z m-7746 -66 c39 -6 45
-10 48 -33 2 -20 12 -30 42 -42 29 -11 47 -28 67 -63 15 -26 40 -61 56 -77 15
-17 27 -33 27 -36 0 -20 -30 -31 -85 -30 -75 1 -105 9 -119 32 -9 15 -6 23 19
43 l30 24 -35 0 c-83 1 -274 67 -322 112 -31 29 -35 30 -178 38 -184 11 -261
20 -254 31 6 10 637 11 704 1z m8871 -69 c90 -67 101 -78 79 -81 -26 -4 -242
16 -249 23 -2 3 3 13 12 23 9 10 19 34 23 53 8 49 12 59 22 59 5 0 56 -35 113
-77z m-9202 -77 c81 -21 242 -99 346 -168 102 -67 261 -227 347 -348 199 -280
271 -534 248 -880 -28 -412 -164 -701 -458 -972 -103 -95 -241 -166 -408 -209
-75 -20 -113 -23 -244 -23 -359 1 -581 95 -841 353 -204 204 -331 416 -401
673 -21 76 -23 104 -23 323 0 304 19 401 110 580 140 274 324 472 547 589 166
88 265 107 523 102 132 -3 210 -9 254 -20z m7959 -79 c2 -26 -3 -42 -17 -56
-22 -22 -65 -28 -76 -11 -12 19 59 114 79 107 6 -2 12 -20 14 -40z m1245 11
c23 -25 31 -27 71 -22 39 6 44 4 43 -12 -1 -12 14 -27 48 -46 69 -38 88 -35
41 7 -22 19 -35 35 -29 35 21 0 92 -72 98 -99 3 -16 19 -50 35 -75 49 -77 70
-124 70 -156 0 -49 -25 -36 -85 43 -120 161 -255 210 -537 199 -65 -2 -118 -3
-118 -1 0 4 12 35 49 132 l11 29 139 -4 c137 -3 140 -3 164 -30z m67 2 c0 -5
-9 -10 -20 -10 -11 0 -20 5 -20 10 0 6 9 10 20 10 11 0 20 -4 20 -10z m-623
-77 c-2 -16 -4 -3 -4 27 0 30 2 43 4 28 2 -16 2 -40 0 -55z m-1669 -8 c273
-53 520 -183 706 -369 203 -205 333 -448 382 -717 25 -136 25 -444 0 -559 -54
-254 -214 -567 -375 -733 -117 -122 -315 -253 -409 -271 -19 -3 -47 -15 -63
-26 -41 -30 -120 -40 -319 -41 -201 -1 -299 13 -456 66 -480 160 -817 530
-926 1015 -20 90 -23 132 -23 300 0 168 3 210 23 299 121 538 505 928 1027
1041 108 24 300 22 433 -5z m-1373 -5 c3 -11 3 -25 -1 -31 -10 -16 -35 18 -27
37 7 20 21 17 28 -6z m-4993 -50 c31 -24 63 -99 50 -112 -6 -6 -19 -7 -30 -4
-23 8 -122 109 -122 125 0 19 76 12 102 -9z m1143 -27 c-19 -108 -52 -172
-111 -212 l-34 -23 -157 21 c-246 34 -248 35 -271 84 -11 23 -27 66 -35 94
-16 52 -16 53 6 58 25 6 158 10 425 13 l183 2 -6 -37z m3766 -16 c-12 -30 -41
-37 -41 -10 0 22 31 56 42 45 5 -5 4 -20 -1 -35z m-2636 3 c198 -11 417 -20
486 -20 69 0 173 -3 231 -6 l106 -7 22 -76 c12 -42 24 -99 27 -128 5 -48 4
-51 -18 -55 -24 -3 -246 2 -712 17 l-238 7 -20 42 c-21 46 -123 164 -133 155
-4 -4 13 -35 37 -70 24 -35 46 -72 50 -82 11 -30 -41 -208 -70 -239 -33 -35
-79 -46 -102 -24 -12 13 -15 33 -13 89 2 71 2 74 -42 135 l-44 63 -10 -29 c-8
-24 -17 -30 -52 -35 -61 -8 -395 9 -418 22 -12 6 -24 21 -27 33 -4 13 -23 37
-43 55 -32 28 -36 37 -40 92 -7 103 -38 95 336 87 180 -4 489 -15 687 -26z
m6047 -52 c-4 -57 6 -60 47 -16 l31 33 42 -42 42 -42 -45 -48 c-24 -26 -81
-94 -127 -150 -122 -152 -148 -150 -143 12 2 58 30 203 47 244 19 46 41 63 79
59 29 -3 30 -4 27 -50z m396 23 c58 -30 172 -158 172 -194 0 -20 -104 -45
-129 -31 -17 10 -170 232 -171 248 0 14 86 -2 128 -23z m-1112 -2 c42 -6 99
-19 126 -30 169 -67 358 -264 383 -401 14 -74 -19 -154 -51 -127 -20 17 -17
27 12 42 l27 14 -54 60 c-30 33 -72 81 -95 106 -25 30 -51 49 -71 53 -19 4
-35 15 -42 30 -8 18 -18 24 -43 24 -19 0 -67 9 -108 21 -89 25 -250 29 -403
10 -94 -12 -99 -12 -133 9 -37 23 -134 136 -134 157 0 14 57 21 265 32 236 12
237 12 321 0z m-3872 -19 c38 -6 75 -15 83 -21 8 -7 13 -33 13 -70 0 -60 -12
-82 -50 -94 -20 -6 -22 -10 -24 -54 -2 -37 -46 -44 -239 -39 -128 4 -172 9
-183 19 -18 18 -68 239 -57 250 4 4 19 9 33 12 50 9 357 6 424 -3z m4828 -1
c14 -8 18 -17 14 -34 -4 -14 4 -40 20 -70 13 -26 22 -50 18 -54 -8 -8 -80 76
-95 111 -9 22 -9 31 1 43 15 18 16 18 42 4z m-7343 -34 c8 -17 17 -57 19 -90
3 -56 -1 -70 -58 -195 -59 -130 -102 -199 -86 -140 4 14 11 45 16 70 4 25 13
56 18 70 9 23 20 101 37 263 5 47 10 58 23 55 9 -2 23 -17 31 -33z m2687 -23
c12 -26 25 -63 29 -81 5 -25 15 -36 41 -47 l34 -14 -34 -50 c-39 -57 -76 -147
-76 -188 -1 -40 -36 -112 -78 -154 -20 -21 -39 -38 -43 -38 -5 0 5 32 21 70
36 87 82 270 78 307 -2 22 -8 28 -27 28 -33 0 -37 19 -8 32 21 10 25 21 31 80
4 38 4 77 0 86 -3 9 -2 17 2 17 5 0 19 -22 30 -48z m380 36 c11 -12 -36 -72
-133 -171 l-88 -89 -3 33 c-3 23 -15 44 -42 69 -57 53 -81 154 -37 163 35 8
294 3 303 -5z m1040 -21 c5 -4 -46 -62 -112 -128 l-120 -120 -166 -6 -166 -6
-17 27 c-37 57 4 213 62 235 32 12 507 11 519 -2z m3714 -94 c0 -26 -20 -12
-35 23 -22 53 -18 62 10 24 14 -19 25 -40 25 -47z m-540 18 c0 -6 -40 -63 -89
-129 -83 -111 -111 -153 -111 -166 0 -7 61 16 145 54 107 49 120 53 106 37
-15 -18 -244 -137 -264 -137 -25 0 -28 29 -8 69 32 63 201 281 217 281 2 0 4
-4 4 -9z m88 -102 c4 -43 -20 -68 -75 -79 -21 -4 -47 -11 -58 -16 -17 -7 -16
-2 9 32 80 108 119 128 124 63z m-3897 -41 c6 -77 29 -118 63 -118 40 0 41
-29 2 -45 -19 -8 -36 -20 -39 -27 -3 -10 -9 -9 -22 4 -16 15 -20 15 -40 2 -19
-13 -24 -13 -34 0 -9 11 -9 27 3 73 8 32 18 81 21 108 9 67 13 77 28 73 7 -3
14 -31 18 -70z m-3744 51 c25 -9 26 -11 10 -20 -19 -11 -77 -3 -77 10 0 23 25
26 67 10z m6602 -2 c13 -6 30 -28 36 -47 14 -42 39 -47 141 -31 44 7 74 7 92
0 26 -10 102 -76 102 -89 0 -8 -92 -36 -145 -44 -22 -4 -82 -16 -132 -28 l-93
-22 -24 23 c-25 23 -106 195 -106 223 0 8 3 18 7 21 11 12 97 7 122 -6z m1511
-7 c0 -17 -51 -33 -64 -20 -8 8 -7 14 4 20 20 13 60 13 60 0z m-1397 -14 c22
-17 22 -22 -3 -29 -20 -5 -50 15 -50 34 0 13 32 10 53 -5z m-6417 -122 c-5
-17 -13 -24 -31 -24 -14 0 -25 5 -25 11 0 14 19 50 39 73 15 18 16 17 19 -9 2
-15 1 -38 -2 -51z m979 35 c0 -19 -49 -23 -64 -6 -9 12 -8 18 5 31 14 15 19
15 38 3 11 -8 21 -21 21 -28z m-1197 4 c4 -27 -34 -46 -82 -41 -42 4 -40 29 4
51 45 22 74 19 78 -10z m7922 6 c50 -11 78 -32 92 -69 17 -43 27 -266 17 -403
-14 -212 -48 -340 -147 -551 -70 -148 -150 -265 -252 -367 -167 -169 -342
-256 -638 -314 l-132 -26 -78 21 c-128 35 -352 126 -367 150 -9 14 55 201 71
207 7 3 65 -13 126 -35 189 -66 321 -77 473 -37 277 72 560 355 667 665 67
194 81 462 37 693 -14 77 -14 77 39 77 26 0 67 -5 92 -11z m-967 -68 c10 -17
14 -31 8 -31 -9 0 -51 61 -51 75 0 13 24 -12 43 -44z m-6118 -1 c0 -34 -2 -36
-59 -55 -45 -15 -63 -27 -76 -50 -19 -34 -46 -42 -75 -21 -18 13 -20 12 -30
-17 -13 -42 -46 -56 -143 -64 -89 -7 -132 0 -132 22 0 10 -11 13 -39 12 -40
-1 -71 15 -71 39 0 14 58 33 255 85 117 31 192 39 230 25 15 -5 22 -1 30 16
12 28 52 49 85 46 21 -3 25 -8 25 -38z m6800 0 c10 -16 -40 -55 -102 -80 -189
-75 -259 -100 -299 -106 -24 -3 -44 -3 -44 1 0 11 396 195 422 195 9 0 20 -4
23 -10z m-1228 -22 c7 -6 10 -14 7 -19 -3 -5 11 -26 31 -46 33 -33 39 -35 78
-29 23 4 73 10 110 13 l68 6 12 -32 c13 -35 30 -36 35 -3 4 26 39 30 57 6 6
-9 35 -20 63 -25 28 -4 79 -20 113 -35 l61 -28 -38 -14 c-22 -7 -81 -24 -133
-38 -150 -38 -205 -28 -91 17 111 44 61 43 -111 -2 -125 -32 -161 -38 -186
-28 -24 9 -80 85 -70 95 9 10 54 -4 72 -22 8 -9 22 -13 30 -10 28 10 15 34
-27 53 -105 44 -143 70 -177 117 l-35 49 60 -8 c32 -4 65 -12 71 -17z m-2953
0 c-4 -7 -28 -39 -53 -72 -34 -43 -47 -54 -49 -41 -3 11 17 38 49 71 54 55 66
64 53 42z m-1924 -8 c0 -5 -19 -10 -42 -10 -32 0 -39 3 -28 10 20 13 70 13 70
0z m5310 -35 c0 -18 -31 -28 -44 -15 -8 8 -6 15 8 25 21 16 36 11 36 -10z
m466 -40 c-26 -19 -42 -19 -26 0 7 8 20 15 29 15 13 -1 13 -3 -3 -15z m346 0
c1 -13 -7 -17 -184 -85 -165 -63 -200 -72 -177 -44 18 22 96 60 214 105 96 37
144 45 147 24z m-6042 -24 l6 -25 22 29 23 29 -7 -45 c-5 -36 -4 -42 7 -31 20
18 31 15 24 -8 -4 -12 -2 -20 5 -20 13 0 57 27 88 54 21 18 22 18 22 1 0 -43
-66 -115 -107 -115 -26 -1 -107 -39 -99 -47 4 -4 74 -10 156 -14 164 -8 211
-20 145 -37 -22 -6 -78 -14 -125 -18 -112 -9 -80 -22 60 -24 58 -1 114 -5 125
-10 48 -19 -27 -22 -283 -10 -641 29 -570 23 -598 53 -24 27 -27 27 -142 26
l-117 -2 87 -8 c109 -9 148 -18 148 -31 0 -8 -36 -9 -117 -4 -65 3 -264 13
-443 21 -475 22 -560 33 -560 70 0 18 0 18 43 0 20 -8 52 -15 72 -15 28 0 35
4 35 19 0 24 -24 33 -68 25 -34 -7 -35 -6 -28 20 7 30 9 30 -69 11 -68 -17
-272 -20 -295 -5 -10 6 -11 10 -2 10 6 0 12 5 12 10 0 18 -40 10 -52 -10 -7
-11 -20 -20 -28 -20 -17 0 -123 71 -116 78 43 42 564 41 696 -2 36 -12 52 -42
29 -57 -9 -5 -6 -9 12 -14 37 -9 689 -21 689 -12 0 4 -9 7 -19 7 -24 0 -37 18
-23 32 12 12 147 45 224 54 54 6 58 5 67 -17 10 -28 5 -46 -21 -75 -19 -21
-19 -21 11 -27 17 -4 92 -10 167 -13 l136 -7 -6 49 c-10 71 3 97 66 128 71 34
139 33 148 -3z m2164 -31 c100 -12 106 -15 106 -36 0 -20 -67 -193 -86 -222
l-15 -23 -29 31 c-24 26 -35 30 -78 30 -28 0 -54 4 -57 10 -3 5 1 43 10 84 8
41 15 91 15 111 0 31 2 35 23 31 12 -3 62 -10 111 -16z m-1051 -2 c15 -12 15
-15 -3 -36 -26 -31 -81 -52 -138 -52 -63 0 -82 18 -58 55 9 13 26 27 39 29 12
3 31 7 42 9 43 9 102 6 118 -5z m592 -28 c-4 -16 -4 -44 0 -61 9 -42 35 -34
49 16 31 109 111 -7 98 -142 -4 -40 -4 -41 -23 -22 -11 11 -33 19 -51 19 -80
1 -269 21 -292 31 -30 14 -25 26 19 45 17 7 69 42 115 79 46 36 85 65 87 65 3
0 2 -13 -2 -30z m4357 -21 c10 -69 9 -198 -2 -220 -12 -21 -52 -25 -96 -9 -15
6 -63 20 -107 31 -67 18 -83 19 -103 8 -20 -10 -33 -9 -91 15 -38 14 -79 36
-93 47 l-25 21 29 -7 c82 -18 86 -18 86 -1 0 23 79 61 280 132 52 18 100 32
105 30 6 -1 13 -23 17 -47z m-8257 -9 c3 -5 -3 -10 -15 -10 -12 0 -18 5 -15
10 3 6 10 10 15 10 5 0 12 -4 15 -10z m3468 -15 c2 -20 -85 -75 -149 -95 -55
-17 -93 -20 -228 -19 -188 0 -239 7 -244 32 -7 33 58 41 313 38 69 -1 86 -4
77 -13 -57 -57 81 -18 183 51 31 21 46 23 48 6z m4253 -88 c-11 -53 -56 -117
-104 -148 -59 -37 -135 -41 -177 -7 -31 25 -58 80 -49 102 8 20 43 21 58 1 9
-13 18 -9 61 26 54 45 78 57 140 68 56 11 79 -3 71 -42z m-7676 16 c8 -8 -17
-38 -44 -53 -25 -14 -28 -13 -41 3 -17 23 -9 46 19 57 19 8 54 4 66 -7z m7234
-75 c-2 -24 -3 -46 -3 -50 -2 -18 -21 -6 -33 20 -13 27 -15 27 -93 24 -103 -5
-91 14 21 33 117 19 111 21 108 -27z m-3814 -8 c0 -5 -9 -10 -20 -10 -11 0
-20 5 -20 10 0 6 9 10 20 10 11 0 20 -4 20 -10z m-165 -18 c84 -16 -1 -22
-276 -23 -152 0 -301 3 -331 8 -52 7 -52 7 -18 14 48 9 576 10 625 1z m-2930
-22 c-5 -8 -68 -30 -88 -30 -19 0 7 20 36 29 43 12 59 13 52 1z m7698 -11 c69
-23 93 -39 59 -39 -35 0 -26 -16 17 -28 51 -16 53 -15 46 8 -8 24 7 26 26 4
11 -14 10 -18 -6 -30 -22 -16 -35 -17 -93 -4 -55 13 -98 40 -81 51 9 5 3 13
-19 26 -32 18 -42 33 -22 33 6 0 39 -9 73 -21z m-7544 -52 c20 -42 22 -51 11
-78 -15 -35 -77 -89 -102 -89 -19 0 -54 43 -86 104 -27 51 -18 69 50 95 78 30
98 25 127 -32z m7441 30 l25 -11 -27 -4 c-25 -3 -88 21 -88 34 0 7 57 -5 90
-19z m-6800 -12 c-16 -16 -91 -34 -77 -19 9 9 64 32 82 33 5 1 3 -6 -5 -14z
m1390 -15 c11 -7 6 -10 -20 -10 -26 0 -31 3 -20 10 8 5 17 10 20 10 3 0 12 -5
20 -10z m5638 -96 c25 -16 29 -51 9 -79 -11 -15 -22 -17 -55 -11 -52 8 -59 -4
-22 -39 17 -16 30 -35 30 -43 0 -22 -42 -92 -56 -92 -16 0 -152 146 -225 243
-53 70 -69 104 -54 119 8 7 347 -81 373 -98z m-868 80 c0 -15 2 -15 26 1 49
32 42 -10 -12 -74 -25 -30 -29 -32 -35 -15 -10 24 -11 89 -2 97 11 12 23 7 23
-9z m-6285 -15 c0 -8 -12 -15 -27 -17 -31 -4 -37 12 -10 27 21 13 37 9 37 -10z
m6130 -12 c4 -13 5 -49 3 -81 -2 -44 -8 -62 -21 -70 -15 -9 -22 -6 -39 14 -34
42 -11 160 32 160 12 0 22 -9 25 -23z m-7035 -55 c0 -52 -40 -129 -96 -182
l-47 -45 20 35 c11 19 31 67 43 105 30 91 47 125 65 125 11 0 15 -11 15 -38z
m795 23 c0 -14 -75 -37 -94 -30 -13 5 -12 10 8 26 25 21 86 23 86 4z m6957
-154 c87 -87 158 -165 158 -172 0 -8 -63 49 -140 126 -76 76 -142 137 -144
134 -7 -7 108 -152 190 -238 65 -69 67 -72 53 -98 -8 -14 -45 -53 -84 -85
l-69 -59 -17 33 c-23 45 -46 127 -95 343 -8 33 -11 76 -8 96 4 26 1 41 -10 52
-9 9 -16 18 -16 21 0 23 43 -14 182 -153z m-5282 115 c-20 -19 -60 -30 -60
-17 0 13 30 30 55 31 17 0 17 -2 5 -14z m4857 -78 c-2 -18 -4 -4 -4 32 0 36 2
50 4 33 2 -18 2 -48 0 -65z m162 61 c13 -39 13 -39 1 -39 -8 0 -40 51 -40 65
0 3 6 5 14 5 8 0 19 -14 25 -31z m-6844 1 c-3 -5 -19 -10 -36 -10 -16 0 -29 5
-29 10 0 6 16 10 36 10 21 0 33 -4 29 -10z m6642 -38 c-13 -114 -94 -421 -120
-456 -14 -19 -15 -18 -36 3 -19 19 -21 28 -15 86 4 36 3 65 -2 65 -4 0 -28
-19 -52 -42 l-43 -43 -20 24 c-10 13 -19 28 -19 35 0 52 256 376 298 376 12 0
14 -9 9 -48z m-6767 12 c0 -18 -63 -46 -94 -42 -35 5 -24 31 19 44 55 17 75
17 75 -2z m-372 -39 c3 -25 2 -27 -12 -16 -19 16 -22 55 -3 49 6 -3 14 -17 15
-33z m7306 -9 c20 -41 89 -310 101 -392 6 -47 4 -53 -16 -68 -13 -9 -35 -16
-49 -16 -14 -1 -38 -7 -55 -15 -29 -13 -28 -13 40 -15 94 -2 57 -17 -63 -26
-106 -8 -132 1 -132 48 0 17 18 103 39 192 22 88 45 193 52 231 11 69 32 109
53 102 6 -2 19 -20 30 -41z m-7104 -7 c-11 -20 -37 -36 -45 -27 -8 8 26 48 41
48 12 0 12 -4 4 -21z m285 7 c16 -11 17 -20 10 -67 -5 -30 -9 -74 -9 -99 0
-40 -5 -49 -44 -85 l-44 -39 -46 24 c-61 32 -129 98 -137 133 -13 50 32 95
129 129 61 21 116 23 141 4z m474 -11 c33 -16 103 -101 133 -158 46 -90 -1
-126 -75 -58 -67 62 -86 54 -62 -25 20 -66 19 -74 -11 -74 -30 0 -43 26 -79
163 -25 91 -31 148 -18 160 12 12 83 7 112 -8z m276 -5 c54 -1 61 -12 34 -59
-29 -52 -50 -52 -102 0 -40 40 -41 42 -22 56 11 7 29 12 40 9 11 -3 34 -6 50
-6z m-521 -15 c15 -15 64 -211 69 -275 2 -30 -1 -35 -22 -38 -47 -7 -70 6 -81
48 -14 51 -46 56 -62 10 -11 -34 -54 -52 -69 -29 -14 22 21 159 63 242 26 52
73 71 102 42z m999 -15 c19 -17 -120 -251 -232 -390 -95 -118 -280 -233 -451
-280 -109 -30 -290 -44 -403 -32 -166 18 -411 112 -532 204 -85 65 -263 250
-271 283 -10 39 21 93 66 114 19 9 34 23 33 29 -6 24 15 9 137 -105 184 -171
342 -269 469 -293 71 -13 322 -13 397 1 163 30 394 219 515 421 l40 69 112 -7
c62 -3 116 -10 120 -14z m-323 -54 c0 -16 -24 -38 -33 -30 -8 9 11 44 23 44 6
0 10 -6 10 -14z m6035 -106 c14 -58 28 -114 32 -125 4 -15 2 -17 -7 -9 -11 11
-70 214 -70 244 0 37 21 -14 45 -110z m-6130 51 c-14 -23 -28 -41 -31 -41 -9
0 8 44 29 74 31 43 33 14 2 -33z m-1210 8 c18 -34 5 -39 -25 -9 -21 21 -24 32
-14 43 10 10 22 -1 39 -34z m145 -96 c0 -8 -9 0 -50 45 l-45 47 48 -45 c26
-24 47 -45 47 -47z m1079 17 c-22 -39 -39 -51 -39 -28 0 11 48 68 58 68 2 0
-7 -18 -19 -40z m-1066 -73 c26 -22 46 -42 43 -44 -11 -11 -156 99 -156 119 0
11 44 -18 113 -75z m765 33 c7 -19 7 -30 1 -30 -9 0 -29 41 -29 61 0 19 18 -1
28 -31z m132 -40 c0 -5 11 -12 25 -16 14 -3 25 -10 25 -14 0 -5 -30 -28 -67
-53 -87 -57 -113 -70 -113 -58 0 14 61 59 98 72 39 13 45 44 7 37 -29 -6 -31
-1 -8 24 18 20 33 24 33 8z m5794 -39 c8 -13 -11 -61 -24 -61 -11 0 -14 53 -3
63 9 10 21 9 27 -2z m-6527 -47 c142 -54 216 -69 211 -41 -2 8 13 13 46 15 41
3 53 -1 76 -23 26 -25 32 -26 119 -23 91 3 118 -4 60 -16 -60 -12 -312 -6
-359 8 -70 21 -230 87 -236 97 -9 15 12 10 83 -17z m7066 -4 c3 -11 1 -23 -4
-26 -5 -3 -9 6 -9 20 0 31 6 34 13 6z m-508 -165 c99 -50 106 -55 67 -50 -54
7 -160 55 -186 83 -31 35 -2 27 119 -33z m238 -72 c-7 -2 -21 -2 -30 0 -10 3
-4 5 12 5 17 0 24 -2 18 -5z"/>
<path d="M270 6180 c0 -26 394 -257 422 -248 16 6 -127 155 -176 183 -35 20
-209 75 -236 75 -6 0 -10 -5 -10 -10z"/>
<path d="M1284 5775 c22 -17 56 -20 56 -6 0 11 -25 21 -53 21 -22 -1 -22 -1
-3 -15z"/>
<path d="M5990 5817 c0 -11 29 -67 35 -67 3 0 5 6 5 14 0 14 -39 67 -40 53z"/>
<path d="M6187 5719 c-3 -12 -2 -31 3 -42 7 -18 9 -14 9 21 1 46 -4 54 -12 21z"/>
<path d="M6075 5569 c-11 -60 -2 -133 17 -137 20 -4 26 32 16 102 -9 64 -25
80 -33 35z"/>
<path d="M6110 5380 c6 -11 15 -20 21 -20 6 0 6 7 -1 20 -6 11 -15 20 -21 20
-6 0 -6 -7 1 -20z"/>
<path d="M6252 5200 c0 -19 2 -27 5 -17 2 9 2 25 0 35 -3 9 -5 1 -5 -18z"/>
<path d="M4848 5813 c6 -2 18 -2 25 0 6 3 1 5 -13 5 -14 0 -19 -2 -12 -5z"/>
<path d="M2055 5670 c-3 -5 3 -10 15 -10 12 0 18 5 15 10 -3 6 -10 10 -15 10
-5 0 -12 -4 -15 -10z"/>
<path d="M9001 5626 c-12 -14 -5 -26 16 -26 15 0 18 26 4 34 -5 3 -14 0 -20
-8z"/>
<path d="M8740 5487 c-14 -29 -7 -48 11 -30 6 6 9 21 7 34 l-4 24 -14 -28z"/>
<path d="M9158 5460 c13 -6 31 -6 45 0 18 7 14 9 -23 9 -37 0 -41 -2 -22 -9z"/>
<path d="M7547 5579 c-22 -11 -37 -23 -34 -25 5 -6 87 33 87 41 0 9 -14 4 -53
-16z"/>
<path d="M7428 5519 c-36 -19 -47 -29 -30 -29 4 0 25 11 47 25 48 29 36 32
-17 4z"/>
<path d="M2385 5105 c34 -27 226 -121 303 -149 166 -59 289 -87 501 -115 84
-11 149 -25 157 -32 7 -8 29 -102 49 -209 55 -296 72 -274 23 30 -30 188 -37
218 -56 224 -9 3 -78 13 -152 21 -330 38 -447 70 -700 188 -52 24 -106 47
-120 51 -24 7 -24 7 -5 -9z"/>
<path d="M5290 4951 c0 -12 42 -42 49 -36 5 6 -29 45 -41 45 -4 0 -8 -4 -8 -9z"/>
<path d="M5638 4793 c6 -2 18 -2 25 0 6 3 1 5 -13 5 -14 0 -19 -2 -12 -5z"/>
<path d="M5538 4253 c34 -2 90 -2 125 0 34 2 6 3 -63 3 -69 0 -97 -1 -62 -3z"/>
<path d="M5883 4253 c15 -2 39 -2 55 0 15 2 2 4 -28 4 -30 0 -43 -2 -27 -4z"/>
<path d="M8970 4586 c0 -8 5 -18 10 -21 6 -3 10 3 10 14 0 12 -4 21 -10 21 -5
0 -10 -6 -10 -14z"/>
<path d="M6606 4651 c-5 -7 6 -11 36 -11 24 0 72 -5 108 -10 60 -8 96 -1 71
14 -21 13 -208 19 -215 7z"/>
<path d="M7265 4488 c-2 -7 -5 -20 -8 -28 -2 -8 3 -23 12 -34 13 -15 16 -39
15 -123 l-2 -104 36 3 c32 3 37 7 43 35 9 43 -2 51 -17 13 -18 -42 -34 -37
-34 10 0 47 34 90 72 90 23 1 23 1 -4 25 -34 30 -35 40 -3 61 32 21 32 34 0
34 -14 0 -42 7 -62 15 -43 18 -43 18 -48 3z"/>
<path d="M7490 4460 c0 -5 9 -10 20 -10 11 0 20 5 20 10 0 6 -9 10 -20 10 -11
0 -20 -4 -20 -10z"/>
<path d="M7615 4460 c3 -5 15 -10 26 -10 10 0 19 5 19 10 0 6 -12 10 -26 10
-14 0 -23 -4 -19 -10z"/>
<path d="M7600 4380 c-12 -8 -10 -10 8 -10 13 0 20 4 17 10 -7 12 -6 12 -25 0z"/>
<path d="M7160 4205 c-14 -16 -10 -18 14 -9 9 3 16 10 16 15 0 14 -16 11 -30
-6z"/>
<path d="M7977 3495 c-4 -38 -7 -111 -7 -160 l0 -90 -267 -39 c-287 -41 -353
-53 -353 -67 0 -5 6 -9 14 -9 20 0 618 90 634 95 16 6 15 162 -2 265 l-12 75
-7 -70z"/>
<path d="M3833 4863 c-13 -2 -23 -8 -23 -13 0 -10 96 -23 131 -18 23 3 23 4 4
14 -25 14 -83 23 -112 17z"/>
<path d="M4028 4833 c12 -2 30 -2 40 0 9 3 -1 5 -23 4 -22 0 -30 -2 -17 -4z"/>
<path d="M4243 4833 c9 -2 25 -2 35 0 9 3 1 5 -18 5 -19 0 -27 -2 -17 -5z"/>
<path d="M4368 4833 c6 -2 18 -2 25 0 6 3 1 5 -13 5 -14 0 -19 -2 -12 -5z"/>
<path d="M4703 4813 c9 -2 25 -2 35 0 9 3 1 5 -18 5 -19 0 -27 -2 -17 -5z"/>
<path d="M4839 4759 c24 -21 47 -37 50 -33 8 8 -65 74 -81 74 -7 -1 7 -19 31
-41z"/>
<path d="M4910 4600 c0 -16 5 -30 10 -30 6 0 10 14 10 30 0 17 -4 30 -10 30
-5 0 -10 -13 -10 -30z"/>
<path d="M4930 4500 c0 -11 5 -20 10 -20 6 0 10 9 10 20 0 11 -4 20 -10 20 -5
0 -10 -9 -10 -20z"/>
<path d="M4993 3890 c-22 -24 -45 -40 -58 -40 -13 0 -28 -7 -35 -14 -15 -19
-9 -58 9 -64 10 -3 12 1 8 17 -7 26 17 41 67 41 29 0 38 5 51 31 19 35 44 35
61 0 7 -13 18 -27 24 -31 9 -6 9 -13 1 -28 -6 -11 -11 -32 -11 -46 0 -39 -48
-34 -63 7 -4 11 -17 17 -39 17 l-33 -1 30 -22 c77 -57 105 -89 105 -121 -1
-27 -20 -92 -45 -148 -4 -11 -3 -18 4 -18 49 0 105 341 66 397 -17 24 -76 63
-94 63 -7 0 -29 -18 -48 -40z"/>
<path d="M4301 3550 c-36 -22 168 -66 349 -75 149 -8 126 9 -35 25 -133 13
-187 22 -256 44 -25 8 -51 11 -58 6z"/>
<path d="M4870 3476 c0 -18 17 -29 30 -21 8 5 7 11 -1 21 -15 18 -29 18 -29 0z"/>
<path d="M6260 4621 c0 -21 74 -155 78 -142 2 6 -8 35 -23 64 -35 67 -55 95
-55 78z"/>
<path d="M6354 4373 c13 -91 18 -113 27 -113 12 0 11 7 -2 91 -13 78 -35 97
-25 22z"/>
<path d="M6950 2347 c-14 -29 -7 -48 11 -30 6 6 9 21 7 34 l-4 24 -14 -28z"/>
<path d="M3497 3524 c-11 -11 2 -23 49 -43 62 -28 193 -115 289 -192 l79 -64
136 -3 c74 -2 160 0 190 4 45 7 23 9 -120 14 -195 7 -191 6 -290 86 -89 72
-290 204 -310 204 -9 0 -20 -3 -23 -6z"/>
<path d="M3730 3325 c0 -3 39 -50 86 -103 155 -175 245 -329 315 -534 18 -54
37 -94 42 -89 16 16 -24 136 -88 266 -76 154 -157 280 -228 353 -56 58 -127
118 -127 107z"/>
<path d="M4453 3213 c9 -2 25 -2 35 0 9 3 1 5 -18 5 -19 0 -27 -2 -17 -5z"/>
<path d="M4618 3213 c23 -2 59 -2 80 0 20 2 1 4 -43 4 -44 0 -61 -2 -37 -4z"/>
<path d="M4833 3213 c9 -2 23 -2 30 0 6 3 -1 5 -18 5 -16 0 -22 -2 -12 -5z"/>
<path d="M5358 3950 c-4 -25 -13 -97 -19 -160 -20 -215 -70 -406 -135 -519
-15 -25 -51 -77 -81 -115 -59 -76 -63 -99 -7 -45 94 90 162 218 203 378 25
102 53 352 49 441 l-3 65 -7 -45z"/>
<path d="M5448 3983 c12 -2 30 -2 40 0 9 3 -1 5 -23 4 -22 0 -30 -2 -17 -4z"/>
<path d="M5715 3980 c3 -5 12 -10 20 -10 8 0 17 5 20 10 4 6 -5 10 -20 10 -15
0 -24 -4 -20 -10z"/>
<path d="M5815 3605 c-5 -2 -22 -6 -37 -9 -23 -5 -28 -12 -28 -37 0 -45 18
-73 36 -58 11 9 23 4 59 -30 24 -22 53 -41 62 -40 17 0 17 1 -1 12 -63 40 -63
40 -27 86 42 53 39 75 -14 78 -22 1 -44 0 -50 -2z m-2 -50 c-6 -16 -16 -19
-26 -8 -9 8 13 34 24 28 4 -3 6 -12 2 -20z"/>
<path d="M5950 3581 c0 -6 12 -16 27 -23 31 -15 41 -42 23 -63 -15 -18 -30
-10 -30 16 0 10 -7 19 -15 19 -19 0 -19 -4 0 -40 17 -32 49 -40 59 -14 10 27
7 89 -6 102 -14 14 -58 16 -58 3z"/>
<path d="M4318 3043 c12 -2 32 -2 45 0 12 2 2 4 -23 4 -25 0 -35 -2 -22 -4z"/>
<path d="M4363 2903 c15 -2 39 -2 55 0 15 2 2 4 -28 4 -30 0 -43 -2 -27 -4z"/>
<path d="M4628 2893 c-37 -10 -16 -23 37 -23 60 0 74 14 24 24 -33 6 -34 6
-61 -1z"/>
<path d="M4825 2880 c-3 -5 3 -10 14 -10 12 0 21 5 21 10 0 6 -6 10 -14 10 -8
0 -18 -4 -21 -10z"/>
<path d="M4995 2879 c18 -5 43 -5 60 0 25 8 20 9 -30 9 -51 0 -55 -1 -30 -9z"/>
<path d="M5230 2880 c8 -5 24 -10 35 -10 11 0 27 5 35 10 11 7 1 10 -35 10
-36 0 -46 -3 -35 -10z"/>
<path d="M5500 2861 c0 -4 36 -11 80 -15 44 -3 93 -9 110 -12 23 -5 30 -3 30
8 0 11 -16 17 -52 22 -76 9 -168 7 -168 -3z"/>
<path d="M5751 2865 c14 -14 132 -36 143 -25 5 5 6 13 2 17 -9 9 -153 18 -145
8z"/>
<path d="M2918 3253 c23 -2 59 -2 80 0 20 2 1 4 -43 4 -44 0 -61 -2 -37 -4z"/>
<path d="M8385 3190 c-27 -30 -12 -34 15 -5 13 14 19 25 13 25 -5 0 -18 -9
-28 -20z"/>
<path d="M8312 3134 c-12 -8 -22 -19 -22 -24 0 -14 48 10 54 26 7 18 -4 18
-32 -2z"/>
<path d="M8083 2991 c-171 -83 -355 -141 -452 -141 -54 0 -75 -13 -38 -25 21
-6 21 -7 -8 -20 l-30 -14 48 -1 c32 0 57 6 75 19 15 11 56 27 92 36 136 35
353 126 410 174 40 33 10 24 -97 -28z"/>
<path d="M7037 2944 c-9 -10 4 -34 19 -34 8 0 14 4 14 9 0 12 -26 32 -33 25z"/>
<path d="M7280 2860 c-12 -8 -9 -10 13 -10 16 0 26 4 22 10 -8 12 -16 12 -35
0z"/>
<path d="M7460 2834 c0 -16 23 -44 35 -44 18 0 20 21 3 38 -12 12 -38 17 -38
6z"/>
<path d="M11542 3060 c0 -19 2 -27 5 -17 2 9 2 25 0 35 -3 9 -5 1 -5 -18z"/>
<path d="M11450 3035 c0 -14 5 -25 10 -25 6 0 10 11 10 25 0 14 -4 25 -10 25
-5 0 -10 -11 -10 -25z"/>
<path d="M11490 3046 c0 -8 5 -18 10 -21 6 -3 10 3 10 14 0 12 -4 21 -10 21
-5 0 -10 -6 -10 -14z"/>
<path d="M11333 2985 c0 -22 2 -30 4 -17 2 12 2 30 0 40 -3 9 -5 -1 -4 -23z"/>
<path d="M11292 2980 c0 -14 2 -19 5 -12 2 6 2 18 0 25 -3 6 -5 1 -5 -13z"/>
<path d="M11513 2902 c-3 -13 -13 -22 -24 -22 -21 0 -23 -8 -10 -29 8 -12 14
-12 39 -2 25 11 35 10 61 -3 29 -16 31 -15 31 2 0 10 5 23 12 30 9 10 8 16 -5
29 -14 14 -21 15 -43 4 -20 -9 -29 -9 -41 0 -11 10 -15 8 -20 -9z"/>
<path d="M11430 2855 c0 -15 4 -24 10 -20 6 3 10 12 10 20 0 8 -4 17 -10 20
-6 4 -10 -5 -10 -20z"/>
<path d="M11391 2831 c-1 -27 2 -32 11 -23 8 8 8 17 0 34 -10 22 -11 21 -11
-11z"/>
<path d="M2530 2721 c-227 -50 -395 -165 -520 -357 -299 -457 -239 -1041 148
-1446 131 -137 313 -258 459 -307 116 -39 312 -25 464 32 309 117 552 433 633
823 35 165 31 246 -19 440 -98 377 -373 683 -720 800 -109 36 -316 44 -445 15z
m318 -18 c5 -18 -20 -16 -44 2 -18 15 -18 15 10 13 16 -2 31 -9 34 -15z m-208
-8 c0 -2 -39 -16 -87 -31 -180 -54 -284 -114 -398 -229 -61 -61 -70 -67 -73
-48 -13 84 252 259 463 306 28 6 95 8 95 2z m270 -135 c37 -73 22 -107 -29
-64 -23 19 -31 34 -31 58 0 60 31 63 60 6z m-201 -237 c33 -128 63 -248 67
-267 9 -53 -12 -45 -30 12 -32 100 -116 462 -116 499 1 41 21 -22 79 -244z
m262 4 c-22 -94 -48 -215 -57 -267 -15 -88 -24 -123 -24 -89 1 118 65 468 101
554 l13 30 4 -28 c2 -15 -15 -105 -37 -200z m-87 107 c19 -19 21 -43 3 -50 -7
-2 -29 2 -50 11 -36 15 -36 15 -67 -18 -25 -27 -32 -30 -40 -17 -13 21 -12 64
2 78 18 18 133 15 152 -4z m262 -33 c-12 -87 10 -104 62 -45 26 29 35 33 50
25 31 -16 45 -39 38 -64 -6 -24 -136 -157 -154 -157 -17 0 -50 62 -62 115 -6
27 -18 57 -26 66 -15 17 -22 78 -10 97 4 7 30 12 58 12 l51 0 -7 -49z m-572 2
c23 -47 56 -167 58 -219 l3 -49 -41 -3 c-39 -3 -44 0 -89 50 -61 68 -135 178
-135 200 0 10 1 18 3 18 1 0 20 7 42 15 22 8 64 14 92 15 47 0 54 -3 67 -27z
m272 -160 c16 -35 16 -37 -2 -50 -22 -16 -29 -16 -55 -3 -23 13 -25 47 -4 77
20 28 39 21 61 -24z m-546 -13 c11 -21 17 -40 14 -43 -8 -8 -76 4 -91 15 -22
17 17 81 43 71 8 -3 23 -22 34 -43z m1008 -22 c-12 -18 -69 -84 -125 -147
-114 -127 -151 -188 -134 -220 24 -44 96 -37 310 28 140 43 175 49 169 29 -2
-7 -42 -25 -89 -41 -180 -59 -391 -85 -434 -53 -18 13 -18 15 -1 61 22 55 100
155 223 283 91 94 122 117 81 60z m222 -109 c43 -85 80 -187 80 -221 0 -33
-13 -11 -40 67 -13 39 -43 112 -67 164 -24 51 -43 96 -43 100 1 13 34 -38 70
-110z m-1330 70 c0 -12 -27 -11 -35 1 -11 17 5 32 21 19 8 -6 14 -15 14 -20z
m1221 -19 c22 0 59 -54 59 -86 0 -35 -35 -57 -99 -62 -71 -5 -87 10 -46 43 25
19 29 31 33 86 4 60 6 63 20 41 8 -12 23 -22 33 -22z m-364 9 c38 -14 63 -38
56 -55 -8 -22 -29 -17 -68 17 -51 45 -46 60 12 38z m503 2 c0 -5 3 -18 7 -28
6 -16 5 -16 -10 -4 -19 15 -23 41 -7 41 6 0 10 -4 10 -9z m-210 -36 c0 -22 -8
-43 -20 -55 -25 -25 -70 -27 -70 -3 0 17 67 93 82 93 4 0 8 -16 8 -35z m-1393
-22 c-4 -21 -14 -63 -22 -93 -22 -76 -30 -293 -16 -410 13 -104 53 -235 102
-332 82 -164 308 -443 336 -415 2 3 -39 51 -91 106 -53 56 -96 106 -96 112 0
6 5 7 10 4 22 -14 183 -200 191 -222 10 -27 72 -67 164 -106 131 -56 230 -72
255 -42 14 17 38 19 60 5 13 -9 13 -12 -2 -24 -10 -7 -18 -16 -18 -19 0 -22
218 38 322 87 118 56 281 223 341 348 18 37 37 68 44 68 7 0 17 9 23 20 6 11
17 20 25 20 43 0 -73 -186 -190 -304 -181 -183 -364 -266 -586 -266 -168 0
-311 50 -457 160 -296 223 -482 588 -482 947 0 99 31 301 54 358 20 48 40 46
33 -2z m873 7 c0 -14 -19 -32 -29 -26 -7 5 -7 14 1 32 8 18 14 21 20 12 4 -7
8 -15 8 -18z m-517 -36 c127 -41 182 -67 190 -88 7 -17 -2 -56 -16 -73 -21
-28 -115 -6 -264 62 -84 39 -110 69 -92 109 17 36 45 34 182 -10z m717 18 c16
-13 21 -24 16 -39 -7 -23 -75 -75 -88 -67 -11 7 -10 82 2 105 13 24 41 24 70
1z m-1031 -71 c-13 -69 -29 -90 -29 -38 0 35 27 113 36 104 3 -3 0 -33 -7 -66z
m652 6 c-8 -8 -11 -3 -11 19 1 25 2 27 11 11 8 -14 8 -22 0 -30z m975 -24 l4
-48 -14 40 c-18 51 -20 83 -5 68 6 -6 13 -33 15 -60z m-446 -95 c0 -4 -11 -8
-24 -8 -13 0 -29 -7 -36 -15 -7 -8 -16 -15 -21 -15 -18 0 -8 32 17 56 24 25
26 25 45 8 10 -9 19 -21 19 -26z m-620 -8 c9 -16 8 -22 -5 -26 -23 -9 -48 15
-34 32 16 19 26 17 39 -6z m285 1 c50 -23 109 -87 125 -137 19 -56 19 -199 1
-199 -23 0 -53 50 -58 98 -5 39 -2 47 16 59 39 24 24 59 -31 72 -15 3 -45 25
-67 47 l-39 41 -63 -31 c-34 -17 -71 -31 -81 -31 -17 0 -18 1 -2 25 23 34 92
75 129 75 17 0 48 -9 70 -19z m-554 -97 c120 -39 144 -57 134 -104 -8 -38 -46
-58 -173 -95 -111 -32 -153 -31 -163 5 -11 40 -10 200 2 221 13 26 51 21 200
-27z m551 -26 c27 -31 39 -88 28 -129 -10 -37 -51 -89 -70 -89 -13 0 -13 1 5
43 23 55 19 107 -10 150 -14 20 -23 42 -20 48 9 14 47 1 67 -23z m-102 -34 c0
-14 -21 -19 -33 -7 -9 9 13 34 24 27 5 -3 9 -12 9 -20z m655 -95 l-15 -34 6
54 c6 65 18 88 22 45 2 -17 -4 -47 -13 -65z m-171 58 c11 -8 17 -22 14 -37 -4
-33 -26 -37 -34 -6 -5 21 -12 26 -37 26 -29 0 -30 1 -11 15 24 18 45 19 68 2z
m-540 -13 c10 -27 7 -81 -7 -92 -25 -21 -66 -25 -92 -8 -19 13 -25 25 -25 54
0 21 5 43 12 50 18 18 105 15 112 -4z m-725 -68 c13 -72 14 -126 2 -126 -5 0
-12 30 -15 68 -4 37 -10 83 -13 102 -10 61 14 20 26 -44z m1681 -21 c0 -11 -5
-27 -10 -35 -7 -11 -10 -1 -10 35 0 36 3 46 10 35 5 -8 10 -24 10 -35z m-430
-8 c38 -14 66 -32 68 -41 2 -9 -3 -16 -10 -16 -22 0 -178 78 -178 89 0 11 25
4 120 -32z m-730 24 c0 -10 -24 -21 -43 -21 -7 0 -3 7 7 15 22 17 36 19 36 6z
m435 -71 c4 -6 -7 -24 -24 -40 -35 -35 -81 -41 -81 -11 0 39 87 81 105 51z
m545 -45 c62 -22 90 -42 90 -65 0 -27 -32 -26 -116 4 -73 27 -110 56 -101 79
6 17 44 11 127 -18z m-726 2 c15 -24 -3 -35 -20 -13 -8 11 -14 24 -14 29 0 13
22 3 34 -16z m-261 -19 c9 -11 17 -26 17 -33 0 -7 -40 -65 -90 -130 -49 -65
-90 -122 -90 -127 0 -11 50 23 70 47 23 28 31 15 9 -15 -13 -16 -20 -33 -16
-37 17 -17 127 120 127 158 0 30 41 99 48 81 2 -7 -3 -21 -12 -31 -9 -10 -16
-31 -16 -48 0 -33 -39 -93 -103 -160 -42 -44 -61 -54 -51 -28 8 20 -10 19 -26
-1 -8 -8 -22 -20 -33 -26 -17 -9 -19 -8 -14 6 4 10 -9 33 -38 66 -46 52 -83
116 -105 184 -17 52 -7 60 115 90 160 40 176 40 208 4z m582 -19 c17 -28 88
-119 158 -203 146 -171 163 -194 152 -204 -9 -9 -118 105 -210 220 -72 89
-128 176 -140 216 -11 38 9 24 40 -29z m125 -23 c0 -24 -16 -43 -27 -32 -8 8
6 56 17 56 6 0 10 -11 10 -24z m-1135 -121 c14 -30 25 -60 25 -67 -1 -26 -58
66 -75 122 -14 44 21 5 50 -55z m895 -56 c38 -145 91 -401 85 -408 -12 -11
-25 24 -65 179 -51 198 -69 283 -70 330 0 58 18 22 50 -101z m470 105 c111
-51 124 -94 29 -94 -57 0 -61 -11 -22 -52 29 -31 37 -88 15 -110 -9 -9 -22 -2
-58 32 -55 54 -144 164 -144 178 0 19 74 72 100 72 14 0 50 -12 80 -26z m-940
-44 c0 -11 -7 -20 -15 -20 -17 0 -18 2 -9 24 9 23 24 20 24 -4z m154 -52 c14
-35 10 -107 -14 -238 -12 -66 -34 -130 -45 -130 -11 0 -50 23 -58 34 -4 6 -5
32 -1 59 6 51 8 50 -59 47 -44 -2 -68 14 -60 38 3 9 31 48 60 85 114 143 152
165 177 105z m116 -15 c0 -29 -59 -304 -77 -363 -16 -51 -18 -53 -21 -24 -3
32 36 244 65 347 15 54 33 77 33 40z m410 -69 c59 -54 150 -169 150 -191 0
-21 -69 -77 -138 -113 -34 -18 -45 -20 -57 -10 -18 15 -48 95 -75 199 -31 122
-26 152 25 163 26 6 48 -5 95 -48z m-288 -7 c9 -14 44 -166 60 -258 17 -96 11
-103 -65 -95 -34 3 -79 11 -99 17 -36 9 -38 12 -38 49 0 53 34 227 54 274 15
36 18 38 48 32 18 -3 35 -12 40 -19z m-407 -206 c-7 -23 -25 -29 -25 -8 0 14
21 39 28 33 2 -3 1 -14 -3 -25z m493 -268 c-10 -2 -26 -2 -35 0 -10 3 -2 5 17
5 19 0 27 -2 18 -5z"/>
<path d="M3395 2111 c-9 -16 15 -55 27 -43 12 12 7 44 -9 49 -6 2 -14 -1 -18
-6z"/>
<path d="M9700 2589 c-246 -31 -537 -227 -701 -472 -131 -196 -189 -385 -189
-617 0 -233 60 -429 194 -630 170 -254 414 -423 711 -493 134 -31 391 -31 490
0 139 44 324 176 427 304 159 198 241 401 269 664 46 438 -151 844 -522 1077
-199 125 -475 193 -679 167z m365 -69 c97 -26 242 -93 333 -154 195 -129 357
-343 416 -548 35 -121 13 -102 -47 43 -57 138 -121 234 -226 340 -227 227
-544 354 -799 319 -255 -35 -544 -223 -690 -448 -61 -94 -129 -264 -147 -366
-19 -111 -19 -296 -1 -402 45 -257 152 -433 385 -634 66 -57 121 -106 121
-108 0 -12 -114 63 -175 115 -136 116 -259 288 -314 439 -124 340 -72 740 131
1008 74 99 185 208 254 252 32 20 70 47 84 60 33 30 98 58 206 89 81 22 103
24 239 21 114 -3 169 -9 230 -26z m-218 -139 c39 -28 65 -69 79 -125 7 -28 6
-28 -27 -21 -105 23 -184 116 -137 163 19 19 42 14 85 -17z m-127 -59 c24 -64
104 -374 114 -442 10 -68 -8 -38 -38 60 -22 76 -94 351 -110 423 -11 47 11 22
34 -41z m316 34 c15 -12 16 -17 7 -27 -10 -10 -20 -9 -48 4 -19 9 -35 21 -35
27 0 15 53 12 76 -4z m99 -38 c-10 -76 -42 -225 -76 -353 -35 -131 -38 -139
-44 -133 -10 10 93 501 111 529 12 21 15 6 9 -43z m-506 -4 c32 -23 56 -81 40
-100 -13 -16 -52 -18 -78 -4 -19 10 -38 91 -26 110 9 15 38 12 64 -6z m397
-80 c-6 -16 -8 -16 -23 -2 -9 10 -13 23 -9 34 6 16 8 16 23 2 9 -10 13 -23 9
-34z m-516 0 c0 -17 -6 -24 -19 -24 -51 0 -70 34 -28 49 31 12 47 3 47 -25z
m835 7 c10 -17 -32 -31 -94 -31 -62 0 -84 12 -54 29 23 13 140 14 148 2z
m-501 -36 c11 -8 17 -18 13 -21 -9 -9 -60 10 -65 24 -5 17 29 14 52 -3z m601
-36 c11 -16 -4 -59 -20 -59 -24 0 -65 23 -65 36 0 27 71 47 85 23z m-1038
-122 c69 -75 109 -127 94 -127 -10 0 -169 170 -184 197 -18 31 30 -6 90 -70z
m233 50 c63 -14 82 -38 78 -102 -3 -39 -4 -40 -38 -37 -48 3 -148 54 -192 98
-21 20 -38 40 -38 45 0 12 124 9 190 -4z m337 -28 c13 -13 -15 -127 -46 -187
l-18 -36 -16 30 c-13 25 -67 186 -67 200 0 9 137 3 147 -7z m465 -66 c-93
-104 -306 -311 -292 -284 15 29 341 363 348 356 3 -2 -23 -35 -56 -72z m-132
13 c0 -16 -167 -196 -212 -227 -16 -12 -32 -19 -35 -16 -7 7 42 216 54 228 5
5 21 4 38 -2 24 -9 39 -7 80 9 61 24 75 26 75 8z m289 -35 c19 -45 11 -84 -23
-99 -44 -22 -62 6 -58 90 4 63 57 69 81 9z m-1307 -45 c35 -13 81 -33 103 -45
22 -11 47 -21 57 -21 36 0 148 -122 148 -162 0 -29 -40 -23 -205 31 -166 54
-226 69 -210 53 6 -6 104 -45 219 -86 115 -42 212 -79 215 -82 18 -19 -117 15
-284 71 -295 99 -288 95 -265 168 l13 42 12 -45 c9 -36 16 -46 35 -48 20 -3
23 -1 13 9 -36 36 12 139 63 139 13 0 52 -11 86 -24z m1156 -35 c5 -29 -15
-51 -44 -51 -30 0 -30 13 -3 51 24 34 42 33 47 0z m-752 -22 c10 -17 -13 -36
-27 -22 -12 12 -4 33 11 33 5 0 12 -5 16 -11z m962 -7 c4 -13 -44 -39 -55 -29
-8 9 28 48 41 44 5 -2 12 -9 14 -15z m-997 -146 c13 -24 18 -47 14 -63 -9 -38
-28 -22 -40 35 -7 28 -24 70 -39 92 -14 22 -26 43 -26 46 0 14 71 -72 91 -110z
m659 62 c-1 -54 -78 -144 -102 -120 -19 19 61 130 95 132 4 0 7 -6 7 -12z
m303 -15 c-7 -2 -19 -2 -25 0 -7 3 -2 5 12 5 14 0 19 -2 13 -5z m-668 -87 c23
-15 105 -167 105 -194 0 -20 -35 -13 -57 11 -32 34 -43 62 -43 106 0 46 -5 49
-52 22 -18 -10 -62 -24 -98 -30 -36 -7 -77 -14 -92 -17 -34 -7 -37 12 -9 47
17 21 22 22 40 12 28 -18 31 -17 31 11 0 13 -8 27 -17 30 -15 6 -15 8 -3 17
22 15 166 4 195 -15z m760 -11 c0 -34 -14 -40 -210 -81 -216 -45 -325 -85
-325 -118 0 -25 64 -77 135 -111 39 -18 136 -54 217 -80 153 -48 209 -77 175
-90 -25 -10 -68 -2 -207 39 -275 82 -264 77 -271 113 -3 18 -20 48 -38 68 -17
20 -31 42 -31 50 0 25 23 64 47 80 28 19 30 35 3 35 -11 0 -20 4 -20 10 0 14
30 27 85 34 28 4 115 23 195 41 80 19 154 36 165 39 11 2 34 3 50 3 26 -2 30
-6 30 -32z m-1463 -39 c165 -55 269 -97 313 -128 32 -22 33 -24 17 -42 -41
-46 -262 -118 -454 -147 -82 -13 -104 -8 -72 16 22 17 62 28 159 43 39 6 108
22 155 36 204 59 182 68 -50 21 -192 -39 -241 -42 -260 -20 -13 16 -10 213 5
248 11 26 40 21 187 -27z m-302 -6 c0 -16 -4 -30 -10 -30 -11 0 -14 43 -3 53
11 12 13 8 13 -23z m1203 -22 c3 -10 2 -20 -3 -23 -12 -7 -30 27 -30 57 0 22
0 22 13 3 8 -11 16 -28 20 -37z m706 -20 l-1 -73 -15 59 c-14 60 -12 86 7 86
6 0 10 -29 9 -72z m-135 6 c20 -8 23 -116 4 -132 -7 -5 -34 -13 -60 -16 -46
-7 -48 -6 -68 26 -23 38 -26 81 -6 97 11 9 52 21 108 30 3 1 13 -2 22 -5z
m-799 -37 c50 -43 44 -139 -12 -190 -19 -17 -20 -15 -19 52 1 63 -2 72 -31
109 -18 23 -33 43 -33 46 0 17 72 4 95 -17z m-108 -30 c12 -27 6 -47 -13 -47
-18 0 -39 43 -31 64 8 20 32 11 44 -17z m692 -41 c6 -25 11 -52 11 -61 0 -20
-58 -45 -106 -45 l-37 0 6 61 c6 64 24 95 61 101 35 6 53 -9 65 -56z m-164 -6
c7 -31 -10 -74 -26 -65 -10 7 -13 88 -3 98 11 11 22 -2 29 -33z m-601 8 c17
-23 21 -85 8 -104 -15 -23 -51 -35 -71 -24 -24 12 -61 58 -61 76 0 7 12 26 26
43 32 38 75 42 98 9z m1112 -145 c-3 -60 -16 -146 -27 -193 -43 -177 -184
-419 -299 -516 -54 -46 -43 -20 25 60 36 43 65 80 65 83 0 3 -9 3 -20 0 -13
-3 -20 0 -20 9 0 8 5 15 10 15 6 1 15 3 20 4 6 1 14 3 19 4 18 2 84 115 121
205 42 102 72 218 91 349 7 48 14 87 17 87 3 0 2 -48 -2 -107z m-1881 -101
c18 -65 15 -107 -4 -58 -17 43 -43 217 -35 235 5 10 10 -10 15 -50 4 -36 15
-93 24 -127z m1065 163 c0 -24 -50 -143 -66 -156 -11 -9 -16 -6 -24 16 l-10
27 -31 -26 c-31 -27 -63 -33 -88 -17 -24 15 -4 38 47 55 30 10 70 36 103 66
57 53 69 59 69 35z m698 -47 c5 -76 -38 -90 -78 -26 -25 41 -22 49 21 64 48
17 54 13 57 -38z m-1148 -29 c0 -23 -75 -122 -181 -238 -148 -163 -163 -169
-200 -86 l-20 45 36 42 c19 23 34 47 32 52 -2 7 -26 10 -59 8 -49 -3 -58 -1
-72 19 -9 13 -16 36 -16 51 0 25 6 29 54 43 96 28 329 74 379 74 27 1 47 -4
47 -10z m545 -40 c0 -7 -8 -15 -17 -17 -18 -3 -25 18 -11 32 10 10 28 1 28
-15z m262 -65 c67 -18 160 -48 208 -65 77 -28 85 -33 79 -53 -10 -32 -71 -153
-111 -219 -41 -68 -36 -69 -126 43 -33 41 -98 118 -142 170 -107 125 -123 149
-104 161 17 11 43 6 196 -37z m-1318 -35 c13 -39 14 -79 2 -79 -10 0 -41 72
-41 95 0 27 28 15 39 -16z m471 -23 c0 -15 -18 -31 -26 -23 -7 7 7 37 17 37 5
0 9 -6 9 -14z m143 -72 c-3 -118 -62 -379 -95 -421 -11 -13 -34 -7 -61 15 -14
13 -16 25 -11 77 8 78 -5 90 -50 46 -38 -37 -61 -39 -100 -8 -22 18 -27 28
-22 45 10 32 312 335 328 330 9 -4 12 -26 11 -84z m354 -84 c3 -3 3 15 -1 40
-7 55 3 76 30 62 26 -14 251 -245 302 -310 46 -59 50 -76 26 -110 -22 -31 -36
-28 -86 23 -64 64 -72 61 -64 -28 8 -88 4 -101 -35 -117 -38 -16 -59 0 -59 47
0 43 -15 35 -24 -12 -4 -19 -10 -35 -15 -35 -9 0 -62 169 -90 290 -24 100 -37
211 -32 260 3 32 5 29 23 -35 10 -38 22 -72 25 -75z m-857 101 c0 -12 -40 -41
-57 -41 -21 0 -15 26 10 38 28 14 47 15 47 3z m254 -65 c-67 -75 -174 -172
-174 -158 0 14 219 236 226 229 3 -3 -20 -35 -52 -71z m489 -62 c20 -60 56
-180 78 -268 33 -129 38 -160 27 -168 -19 -13 -209 -2 -250 15 -24 10 -37 23
-40 40 -18 96 94 508 135 494 7 -2 29 -53 50 -113z m-744 -8 c21 -22 31 -41
28 -50 -12 -30 -54 6 -71 62 -10 32 5 27 43 -12z m1526 12 c-8 -27 -32 -54
-40 -46 -9 8 23 68 36 68 6 0 8 -9 4 -22z m-985 -175 c-15 -83 -33 -168 -40
-187 -14 -43 -40 -49 -40 -8 1 68 90 366 105 350 2 -1 -10 -71 -25 -155z
m-220 -27 c0 -7 -6 -19 -14 -25 -19 -16 -32 5 -16 24 16 19 30 19 30 1z m-175
-87 c11 -17 2 -18 -25 -4 -24 14 -24 14 -3 15 12 0 25 -5 28 -11z m981 -66
c-7 -17 -8 -17 -21 0 -8 11 -11 26 -8 34 5 13 8 13 21 0 9 -10 12 -23 8 -34z
m98 -94 c-52 -57 -358 -164 -407 -141 -22 10 -22 10 3 20 14 5 73 21 131 35
58 14 143 43 190 65 97 47 109 50 83 21z"/>
<path d="M10062 920 c0 -14 2 -19 5 -12 2 6 2 18 0 25 -3 6 -5 1 -5 -13z"/>
<path d="M10100 801 c0 -34 21 -111 30 -106 10 6 -7 106 -20 119 -7 7 -10 3
-10 -13z"/>
<path d="M5414 2706 c-9 -24 3 -47 21 -40 18 7 16 45 -2 52 -7 2 -16 -3 -19
-12z"/>
<path d="M5587 2533 c-4 -3 -7 -12 -7 -20 0 -15 26 -18 34 -4 7 11 -18 33 -27
24z"/>
<path d="M5704 2345 c-7 -17 4 -37 17 -30 12 8 12 45 -1 45 -6 0 -13 -7 -16
-15z"/>
<path d="M11115 2569 c-16 -6 -14 -8 13 -8 33 -1 41 4 20 12 -7 2 -22 1 -33
-4z"/>
<path d="M11630 2483 c0 -10 60 -100 76 -113 24 -21 16 -2 -26 61 -38 56 -50
68 -50 52z"/>
<path d="M12214 2664 c3 -9 6 -18 6 -20 0 -2 5 -4 10 -4 6 0 10 9 10 20 0 12
-7 20 -16 20 -11 0 -14 -5 -10 -16z"/>
<path d="M6205 2150 c-8 -13 4 -32 16 -25 12 8 12 35 0 35 -6 0 -13 -4 -16
-10z"/>
<path d="M5963 1943 c32 -2 81 -2 110 0 29 2 3 3 -58 3 -60 0 -84 -1 -52 -3z"/>
<path d="M6300 1920 c0 -5 9 -10 20 -10 11 0 20 5 20 10 0 6 -9 10 -20 10 -11
0 -20 -4 -20 -10z"/>
<path d="M7143 2003 c9 -2 25 -2 35 0 9 3 1 5 -18 5 -19 0 -27 -2 -17 -5z"/>
<path d="M11655 1917 l-40 -22 28 -3 c29 -4 77 21 77 38 0 15 -21 11 -65 -13z"/>
<path d="M7686 5337 c-10 -8 -17 -19 -15 -26 3 -9 9 -8 23 2 10 8 17 19 15 26
-3 9 -9 8 -23 -2z"/>
<path d="M10336 4645 c-6 -17 2 -45 14 -45 4 0 10 7 14 15 6 17 -2 45 -14 45
-4 0 -10 -7 -14 -15z"/>
<path d="M8631 4451 c-29 -57 -41 -108 -23 -97 12 7 65 146 59 153 -3 3 -19
-22 -36 -56z"/>
<path d="M8725 4447 c-16 -38 27 -116 58 -104 12 4 17 18 17 44 0 36 -1 36
-17 20 -17 -17 -19 -16 -34 20 -14 31 -18 35 -24 20z"/>
<path d="M8854 4346 c-90 -40 -112 -266 -35 -373 41 -59 51 -90 58 -177 6 -81
16 -116 33 -116 5 0 8 18 8 40 0 23 8 54 21 75 25 43 25 45 6 45 -10 0 -15 10
-15 34 0 23 -13 53 -40 94 -22 33 -40 69 -40 81 0 24 -10 27 -28 9 -15 -15
-15 -9 2 38 16 47 39 174 32 181 -2 3 -17 -18 -31 -47 -14 -29 -29 -50 -31
-47 -11 10 26 78 65 120 55 60 54 69 -5 43z"/>
<path d="M9336 4264 c-10 -25 -7 -146 4 -186 13 -44 25 -54 47 -37 12 11 14
29 11 94 -6 103 -43 180 -62 129z"/>
<path d="M8998 4171 c-15 -5 -35 -17 -45 -26 -11 -12 -26 -15 -50 -12 -18 3
-33 2 -33 -3 0 -17 195 -34 260 -23 52 10 64 33 25 51 -35 16 -124 23 -157 13z"/>
<path d="M9383 3956 c-39 -43 -39 -46 -13 -46 23 0 53 41 48 66 -2 14 -10 10
-35 -20z"/>
<path d="M9775 3920 c52 -10 397 -29 404 -23 3 2 -1 9 -7 15 -8 8 -81 12 -229
14 -152 2 -203 0 -168 -6z"/>
<path d="M10400 3902 c-27 -28 -52 -114 -36 -129 10 -11 17 4 23 49 6 43 26
78 47 78 6 1 25 7 41 15 l30 13 -38 1 c-30 1 -45 -6 -67 -27z"/>
<path d="M10560 3920 c0 -5 14 -10 30 -10 17 0 30 5 30 10 0 6 -13 10 -30 10
-16 0 -30 -4 -30 -10z"/>
<path d="M10235 3891 c3 -18 5 -42 5 -52 0 -11 5 -19 10 -19 14 0 11 40 -6 75
l-14 30 5 -34z"/>
<path d="M9560 3890 c0 -11 6 -20 13 -20 19 0 27 10 20 26 -8 21 -33 17 -33
-6z"/>
<path d="M9248 3844 c-16 -8 -28 -18 -28 -23 0 -7 73 -31 94 -31 13 0 5 20
-16 44 -22 24 -25 24 -50 10z"/>
<path d="M9582 3805 c0 -16 2 -22 5 -12 2 9 2 23 0 30 -3 6 -5 -1 -5 -18z"/>
<path d="M9138 3813 c6 -2 18 -2 25 0 6 3 1 5 -13 5 -14 0 -19 -2 -12 -5z"/>
<path d="M9640 3793 c0 -42 15 -60 34 -44 21 18 20 34 -2 54 -26 23 -32 21
-32 -10z"/>
<path d="M9208 3754 c-4 -40 -60 -66 -155 -72 -111 -7 -77 -27 45 -26 146 1
261 30 276 70 11 30 -18 46 -92 52 l-70 5 -4 -29z"/>
<path d="M10772 3670 c0 -14 2 -19 5 -12 2 6 2 18 0 25 -3 6 -5 1 -5 -13z"/>
<path d="M9803 3673 c15 -2 37 -2 50 0 12 2 0 4 -28 4 -27 0 -38 -2 -22 -4z"/>
<path d="M10686 3521 c-8 -12 32 -41 57 -41 13 0 18 6 15 23 -2 17 -11 23 -35
25 -17 2 -34 -1 -37 -7z"/>
<path d="M10216 3498 c-8 -13 -17 -48 -21 -79 l-7 -56 -106 -7 c-58 -3 -189
-7 -291 -7 -102 -1 -231 -5 -286 -9 -70 -5 0 -7 230 -8 481 -2 517 6 523 110
2 39 -1 58 -12 67 -12 10 -17 8 -30 -11z"/>
<path d="M10371 3464 c-1 -38 5 -58 21 -79 23 -30 75 -55 110 -54 16 0 6 8
-31 25 -30 13 -57 27 -59 29 -3 2 -13 33 -23 67 l-18 63 0 -51z"/>
<path d="M2465 300 c-4 -6 5 -10 20 -10 15 0 24 4 20 10 -3 6 -12 10 -20 10
-8 0 -17 -4 -20 -10z"/>
</g>
</svg>
